<?xml version="1.0" encoding="utf-8"?>
<!-- Generator: Adobe Illustrator 16.0.0, SVG Export Plug-In . SVG Version: 6.00 Build 0)  -->
<!DOCTYPE svg PUBLIC "-//W3C//DTD SVG 1.1//EN" "http://www.w3.org/Graphics/SVG/1.1/DTD/svg11.dtd">
<svg version="1.1" xmlns="http://www.w3.org/2000/svg" xmlns:xlink="http://www.w3.org/1999/xlink" x="0px" y="0px" width="650px"
	 height="233px" viewBox="0 0 650 233" enable-background="new 0 0 650 233" xml:space="preserve">
<g id="mur_exterieurs_1_" enable-background="new    ">
	<g id="mur_exterieurs">
		<g>
			<rect x="0.256" y="-0.207" fill="#FFFFFF" width="650.256" height="233.029"/>
		</g>
		<g>
			<rect x="0.256" y="-0.207" fill="none" stroke="#000000" stroke-miterlimit="10" width="650.256" height="233.029"/>
		</g>
	</g>
</g>
<g id="s_1_1_" enable-background="new    ">
	<g id="s_1">
		<g>
			<rect x="2.814" y="1.842" fill="#FFFFFF" width="27.627" height="44.558"/>
		</g>
		<g>
			<rect x="2.814" y="1.842" fill="none" stroke="#000000" stroke-miterlimit="10" width="27.627" height="44.558"/>
		</g>
	</g>
</g>
<g id="s_2_1_" enable-background="new    ">
	<g id="s_2">
		<g>
			<rect x="29.929" y="1.842" fill="#FFFFFF" width="26.604" height="44.558"/>
		</g>
		<g>
			<rect x="29.929" y="1.842" fill="none" stroke="#000000" stroke-miterlimit="10" width="26.604" height="44.558"/>
		</g>
	</g>
</g>
<g id="s_3_1_" enable-background="new    ">
	<g id="s_3">
		<g>
			<rect x="56.021" y="1.842" fill="#FFFFFF" width="26.604" height="44.558"/>
		</g>
		<g>
			<rect x="56.021" y="1.842" fill="none" stroke="#000000" stroke-miterlimit="10" width="26.604" height="44.558"/>
		</g>
	</g>
</g>
<g id="s_4_1_" enable-background="new    ">
	<g id="s_4">
		<g>
			<rect x="82.113" y="1.842" fill="#FFFFFF" width="26.604" height="44.558"/>
		</g>
		<g>
			<rect x="82.113" y="1.842" fill="none" stroke="#000000" stroke-miterlimit="10" width="26.604" height="44.558"/>
		</g>
	</g>
</g>
<g id="s_5_1_" enable-background="new    ">
	<g id="s_5">
		<g>
			<rect x="108.206" y="1.842" fill="#FFFFFF" width="26.092" height="44.558"/>
		</g>
		<g>
			<rect x="108.206" y="1.842" fill="none" stroke="#000000" stroke-miterlimit="10" width="26.092" height="44.558"/>
		</g>
	</g>
</g>
<g id="s_6_1_" enable-background="new    ">
	<g id="s_6">
		<g>
			<rect x="133.786" y="1.842" fill="#FFFFFF" width="26.604" height="44.558"/>
		</g>
		<g>
			<rect x="133.786" y="1.842" fill="none" stroke="#000000" stroke-miterlimit="10" width="26.604" height="44.558"/>
		</g>
	</g>
</g>
<g id="s_7_1_" enable-background="new    ">
	<g id="s_7">
		<g>
			<rect x="159.878" y="1.842" fill="#FFFFFF" width="26.604" height="44.558"/>
		</g>
		<g>
			<rect x="159.878" y="1.842" fill="none" stroke="#000000" stroke-miterlimit="10" width="26.604" height="44.558"/>
		</g>
	</g>
</g>
<g id="s_8_1_" enable-background="new    ">
	<g id="s_8">
		<g>
			<rect x="185.97" y="1.842" fill="#FFFFFF" width="26.604" height="44.558"/>
		</g>
		<g>
			<rect x="185.97" y="1.842" fill="none" stroke="#000000" stroke-miterlimit="10" width="26.604" height="44.558"/>
		</g>
	</g>
</g>
<g id="s_9_1_" enable-background="new    ">
	<g id="s_9">
		<g>
			<rect x="212.574" y="1.842" fill="#FFFFFF" width="26.092" height="44.558"/>
		</g>
		<g>
			<rect x="212.574" y="1.842" fill="none" stroke="#000000" stroke-miterlimit="10" width="26.092" height="44.558"/>
		</g>
	</g>
</g>
<g id="s_10_1_" enable-background="new    ">
	<g id="s_10">
		<g>
			<rect x="238.154" y="1.842" fill="#FFFFFF" width="26.604" height="44.558"/>
		</g>
		<g>
			<rect x="238.154" y="1.842" fill="none" stroke="#000000" stroke-miterlimit="10" width="26.604" height="44.558"/>
		</g>
	</g>
</g>
<g id="s_11_1_" enable-background="new    ">
	<g id="s_11">
		<g>
			<rect x="264.246" y="1.842" fill="#FFFFFF" width="26.604" height="44.558"/>
		</g>
		<g>
			<rect x="264.246" y="1.842" fill="none" stroke="#000000" stroke-miterlimit="10" width="26.604" height="44.558"/>
		</g>
	</g>
</g>
<g id="s_12_1_" enable-background="new    ">
	<g id="s_12">
		<g>
			<rect x="290.338" y="1.842" fill="#FFFFFF" width="26.604" height="44.558"/>
		</g>
		<g>
			<rect x="290.338" y="1.842" fill="none" stroke="#000000" stroke-miterlimit="10" width="26.604" height="44.558"/>
		</g>
	</g>
</g>
<g id="s_13_1_" enable-background="new    ">
	<g id="s_13">
		<g>
			<rect x="316.942" y="1.842" fill="#FFFFFF" width="33.767" height="54.801"/>
		</g>
		<g>
			<rect x="316.942" y="1.842" fill="none" stroke="#000000" stroke-miterlimit="10" width="33.767" height="54.801"/>
		</g>
	</g>
</g>
<g id="s_14_1_" enable-background="new    ">
	<g id="s_14">
		<g>
			<rect x="302.617" y="35.644" fill="#FFFFFF" width="35.813" height="20.999"/>
		</g>
		<g>
			<rect x="302.617" y="35.644" fill="none" stroke="#000000" stroke-miterlimit="10" width="35.813" height="20.999"/>
		</g>
	</g>
</g>
<g id="s_15_1_" enable-background="new    ">
	<g id="s_15">
		<g>
			<rect x="350.197" y="1.842" fill="#FFFFFF" width="27.627" height="54.801"/>
		</g>
		<g>
			<rect x="350.197" y="1.842" fill="none" stroke="#000000" stroke-miterlimit="10" width="27.627" height="54.801"/>
		</g>
	</g>
</g>
<g id="placard_elec_5_" enable-background="new    ">
	<g id="placard_elec">
		<g>
			<rect x="362.986" y="51.009" fill="#FFFFFF" width="14.838" height="6.146"/>
		</g>
		<g>
			<rect x="362.986" y="51.009" fill="none" stroke="#000000" stroke-miterlimit="10" width="14.838" height="6.146"/>
		</g>
	</g>
</g>
<g id="s_16_1_" enable-background="new    ">
	<g id="s_16">
		<g>
			<rect x="377.313" y="1.842" fill="#FFFFFF" width="27.627" height="55.313"/>
		</g>
		<g>
			<rect x="377.313" y="1.842" fill="none" stroke="#000000" stroke-miterlimit="10" width="27.627" height="55.313"/>
		</g>
	</g>
</g>
<g id="s_17_1_" enable-background="new    ">
	<g id="s_17">
		<g>
			<rect x="404.428" y="1.842" fill="#FFFFFF" width="33.254" height="55.313"/>
		</g>
		<g>
			<rect x="404.428" y="1.842" fill="none" stroke="#000000" stroke-miterlimit="10" width="33.254" height="55.313"/>
		</g>
	</g>
</g>
<g id="empty_15_" enable-background="new    ">
	<g id="empty">
		<g>
			<rect x="421.822" y="46.399" fill="#FFFFFF" width="21.487" height="14.34"/>
		</g>
	</g>
</g>
<g id="s_18_1_" enable-background="new    ">
	<g id="s_18">
		<g>
			<rect x="437.682" y="1.842" fill="#FFFFFF" width="27.115" height="44.558"/>
		</g>
		<g>
			<rect x="437.682" y="1.842" fill="none" stroke="#000000" stroke-miterlimit="10" width="27.115" height="44.558"/>
		</g>
	</g>
</g>
<g id="s_19_1_" enable-background="new    ">
	<g id="s_19">
		<g>
			<rect x="464.285" y="1.842" fill="#FFFFFF" width="26.093" height="44.558"/>
		</g>
		<g>
			<rect x="464.285" y="1.842" fill="none" stroke="#000000" stroke-miterlimit="10" width="26.093" height="44.558"/>
		</g>
	</g>
</g>
<g id="s_20_1_" enable-background="new    ">
	<g id="s_20">
		<g>
			<rect x="489.866" y="1.842" fill="#FFFFFF" width="26.604" height="44.558"/>
		</g>
		<g>
			<rect x="489.866" y="1.842" fill="none" stroke="#000000" stroke-miterlimit="10" width="26.604" height="44.558"/>
		</g>
	</g>
</g>
<g id="s_21_1_" enable-background="new    ">
	<g id="s_21">
		<g>
			<rect x="515.958" y="1.842" fill="#FFFFFF" width="26.604" height="44.558"/>
		</g>
		<g>
			<rect x="515.958" y="1.842" fill="none" stroke="#000000" stroke-miterlimit="10" width="26.604" height="44.558"/>
		</g>
	</g>
</g>
<g id="s_22_1_" enable-background="new    ">
	<g id="s_22">
		<g>
			<rect x="542.051" y="1.842" fill="#FFFFFF" width="26.604" height="44.558"/>
		</g>
		<g>
			<rect x="542.051" y="1.842" fill="none" stroke="#000000" stroke-miterlimit="10" width="26.604" height="44.558"/>
		</g>
	</g>
</g>
<g id="s_23_1_" enable-background="new    ">
	<g id="s_23">
		<g>
			<rect x="568.143" y="1.842" fill="#FFFFFF" width="26.604" height="44.558"/>
		</g>
		<g>
			<rect x="568.143" y="1.842" fill="none" stroke="#000000" stroke-miterlimit="10" width="26.604" height="44.558"/>
		</g>
	</g>
</g>
<g id="s_24_1_" enable-background="new    ">
	<g id="s_24">
		<g>
			<rect x="594.234" y="1.842" fill="#FFFFFF" width="53.719" height="44.558"/>
		</g>
		<g>
			<rect x="594.234" y="1.842" fill="none" stroke="#000000" stroke-miterlimit="10" width="53.719" height="44.558"/>
		</g>
	</g>
</g>
<g id="s_25_1_" enable-background="new    ">
	<g id="s_25">
		<g>
			<rect x="604.979" y="40.766" fill="#FFFFFF" width="42.975" height="29.705"/>
		</g>
		<g>
			<rect x="604.979" y="40.766" fill="none" stroke="#000000" stroke-miterlimit="10" width="42.975" height="29.705"/>
		</g>
	</g>
</g>
<g id="s_26_1_" enable-background="new    ">
	<g id="s_26">
		<g>
			<rect x="604.979" y="69.958" fill="#FFFFFF" width="42.975" height="29.192"/>
		</g>
		<g>
			<rect x="604.979" y="69.958" fill="none" stroke="#000000" stroke-miterlimit="10" width="42.975" height="29.192"/>
		</g>
	</g>
</g>
<g id="s_27_1_" enable-background="new    ">
	<g id="s_27">
		<g>
			<rect x="604.979" y="98.639" fill="#FFFFFF" width="42.975" height="35.339"/>
		</g>
		<g>
			<rect x="604.979" y="98.639" fill="none" stroke="#000000" stroke-miterlimit="10" width="42.975" height="35.339"/>
		</g>
	</g>
</g>
<g id="s_28_1_" enable-background="new    ">
	<g id="s_28">
		<g>
			<rect x="604.979" y="133.465" fill="#FFFFFF" width="42.975" height="34.826"/>
		</g>
		<g>
			<rect x="604.979" y="133.465" fill="none" stroke="#000000" stroke-miterlimit="10" width="42.975" height="34.826"/>
		</g>
	</g>
</g>
<g id="s_29_1_" enable-background="new    ">
	<g id="s_29">
		<g>
			<rect x="594.234" y="167.779" fill="#FFFFFF" width="53.719" height="62.482"/>
		</g>
		<g>
			<rect x="594.234" y="167.779" fill="none" stroke="#000000" stroke-miterlimit="10" width="53.719" height="62.482"/>
		</g>
	</g>
</g>
<g id="empty_14_" enable-background="new    ">
	<g id="empty_1_">
		<g>
			<rect x="593.211" y="167.268" fill="#FFFFFF" width="11.768" height="18.949"/>
		</g>
	</g>
</g>
<g id="s_30_1_" enable-background="new    ">
	<g id="s_30">
		<g>
			<rect x="568.654" y="186.217" fill="#FFFFFF" width="26.092" height="44.045"/>
		</g>
		<g>
			<rect x="568.654" y="186.217" fill="none" stroke="#000000" stroke-miterlimit="10" width="26.092" height="44.045"/>
		</g>
	</g>
</g>
<g id="s_31_1_" enable-background="new    ">
	<g id="s_31">
		<g>
			<rect x="542.562" y="186.217" fill="#FFFFFF" width="26.604" height="44.045"/>
		</g>
		<g>
			<rect x="542.562" y="186.217" fill="none" stroke="#000000" stroke-miterlimit="10" width="26.604" height="44.045"/>
		</g>
	</g>
</g>
<g id="s_32_1_" enable-background="new    ">
	<g id="s_32">
		<g>
			<rect x="516.47" y="186.217" fill="#FFFFFF" width="26.604" height="44.045"/>
		</g>
		<g>
			<rect x="516.47" y="186.217" fill="none" stroke="#000000" stroke-miterlimit="10" width="26.604" height="44.045"/>
		</g>
	</g>
</g>
<g id="s_33_1_" enable-background="new    ">
	<g id="s_33">
		<g>
			<rect x="490.378" y="186.217" fill="#FFFFFF" width="26.604" height="44.045"/>
		</g>
		<g>
			<rect x="490.378" y="186.217" fill="none" stroke="#000000" stroke-miterlimit="10" width="26.604" height="44.045"/>
		</g>
	</g>
</g>
<g id="s_34_1_" enable-background="new    ">
	<g id="s_34">
		<g>
			<rect x="464.285" y="186.217" fill="#FFFFFF" width="26.604" height="44.045"/>
		</g>
		<g>
			<rect x="464.285" y="186.217" fill="none" stroke="#000000" stroke-miterlimit="10" width="26.604" height="44.045"/>
		</g>
	</g>
</g>
<g id="s_35_1_" enable-background="new    ">
	<g id="s_35">
		<g>
			<rect x="437.682" y="186.217" fill="#FFFFFF" width="27.115" height="44.045"/>
		</g>
		<g>
			<rect x="437.682" y="186.217" fill="none" stroke="#000000" stroke-miterlimit="10" width="27.115" height="44.045"/>
		</g>
	</g>
</g>
<g id="s_36_1_" enable-background="new    ">
	<g id="s_36">
		<g>
			<rect x="404.428" y="175.974" fill="#FFFFFF" width="33.254" height="54.288"/>
		</g>
		<g>
			<rect x="404.428" y="175.974" fill="none" stroke="#000000" stroke-miterlimit="10" width="33.254" height="54.288"/>
		</g>
	</g>
</g>
<g id="empty_13_" enable-background="new    ">
	<g id="empty_2_">
		<g>
			<rect x="421.822" y="174.949" fill="#FFFFFF" width="16.883" height="11.268"/>
		</g>
	</g>
</g>
<g id="s_37_1_" enable-background="new    ">
	<g id="s_37">
		<g>
			<rect x="377.313" y="175.974" fill="#FFFFFF" width="27.627" height="54.288"/>
		</g>
		<g>
			<rect x="377.313" y="175.974" fill="none" stroke="#000000" stroke-miterlimit="10" width="27.627" height="54.288"/>
		</g>
	</g>
</g>
<g id="s_38_1_" enable-background="new    ">
	<g id="s_38">
		<g>
			<rect x="350.709" y="175.974" fill="#FFFFFF" width="27.115" height="54.288"/>
		</g>
		<g>
			<rect x="350.709" y="175.974" fill="none" stroke="#000000" stroke-miterlimit="10" width="27.115" height="54.288"/>
		</g>
	</g>
</g>
<g id="s_39_1_" enable-background="new    ">
	<g id="s_39">
		<g>
			<rect x="316.942" y="175.974" fill="#FFFFFF" width="33.767" height="54.288"/>
		</g>
		<g>
			<rect x="316.942" y="175.974" fill="none" stroke="#000000" stroke-miterlimit="10" width="33.767" height="54.288"/>
		</g>
	</g>
</g>
<g id="s_41_1_" enable-background="new    ">
	<g id="s_41">
		<g>
			<rect x="290.338" y="186.217" fill="#FFFFFF" width="26.604" height="44.045"/>
		</g>
		<g>
			<rect x="290.338" y="186.217" fill="none" stroke="#000000" stroke-miterlimit="10" width="26.604" height="44.045"/>
		</g>
	</g>
</g>
<g id="s_40_1_" enable-background="new    ">
	<g id="s_40">
		<g>
			<rect x="302.105" y="175.462" fill="#FFFFFF" width="36.324" height="22.022"/>
		</g>
		<g>
			<rect x="302.105" y="175.462" fill="none" stroke="#000000" stroke-miterlimit="10" width="36.324" height="22.022"/>
		</g>
	</g>
</g>
<g id="s_42_1_" enable-background="new    ">
	<g id="s_42">
		<g>
			<rect x="264.758" y="186.217" fill="#FFFFFF" width="26.092" height="44.045"/>
		</g>
		<g>
			<rect x="264.758" y="186.217" fill="none" stroke="#000000" stroke-miterlimit="10" width="26.092" height="44.045"/>
		</g>
	</g>
</g>
<g id="s_43_1_" enable-background="new    ">
	<g id="s_43">
		<g>
			<rect x="238.666" y="186.217" fill="#FFFFFF" width="26.604" height="44.045"/>
		</g>
		<g>
			<rect x="238.666" y="186.217" fill="none" stroke="#000000" stroke-miterlimit="10" width="26.604" height="44.045"/>
		</g>
	</g>
</g>
<g id="s_44_1_" enable-background="new    ">
	<g id="s_44">
		<g>
			<rect x="212.574" y="186.217" fill="#FFFFFF" width="26.604" height="44.045"/>
		</g>
		<g>
			<rect x="212.574" y="186.217" fill="none" stroke="#000000" stroke-miterlimit="10" width="26.604" height="44.045"/>
		</g>
	</g>
</g>
<g id="s_45_1_" enable-background="new    ">
	<g id="s_45">
		<g>
			<rect x="186.993" y="186.217" fill="#FFFFFF" width="25.581" height="44.045"/>
		</g>
		<g>
			<rect x="186.993" y="186.217" fill="none" stroke="#000000" stroke-miterlimit="10" width="25.581" height="44.045"/>
		</g>
	</g>
</g>
<g id="s_46_1_" enable-background="new    ">
	<g id="s_46">
		<g>
			<rect x="160.39" y="186.217" fill="#FFFFFF" width="27.115" height="44.045"/>
		</g>
		<g>
			<rect x="160.39" y="186.217" fill="none" stroke="#000000" stroke-miterlimit="10" width="27.115" height="44.045"/>
		</g>
	</g>
</g>
<g id="s_47_1_" enable-background="new    ">
	<g id="s_47">
		<g>
			<rect x="134.297" y="186.217" fill="#FFFFFF" width="26.604" height="44.045"/>
		</g>
		<g>
			<rect x="134.297" y="186.217" fill="none" stroke="#000000" stroke-miterlimit="10" width="26.604" height="44.045"/>
		</g>
	</g>
</g>
<g id="s_48_1_" enable-background="new    ">
	<g id="s_48">
		<g>
			<rect x="108.206" y="186.217" fill="#FFFFFF" width="26.604" height="44.045"/>
		</g>
		<g>
			<rect x="108.206" y="186.217" fill="none" stroke="#000000" stroke-miterlimit="10" width="26.604" height="44.045"/>
		</g>
	</g>
</g>
<g id="s_49_1_" enable-background="new    ">
	<g id="s_49">
		<g>
			<rect x="82.113" y="186.217" fill="#FFFFFF" width="26.604" height="44.045"/>
		</g>
		<g>
			<rect x="82.113" y="186.217" fill="none" stroke="#000000" stroke-miterlimit="10" width="26.604" height="44.045"/>
		</g>
	</g>
</g>
<g id="s_50_1_" enable-background="new    ">
	<g id="s_50">
		<g>
			<rect x="56.021" y="186.217" fill="#FFFFFF" width="26.604" height="44.045"/>
		</g>
		<g>
			<rect x="56.021" y="186.217" fill="none" stroke="#000000" stroke-miterlimit="10" width="26.604" height="44.045"/>
		</g>
	</g>
</g>
<g id="s_51_1_" enable-background="new    ">
	<g id="s_51">
		<g>
			<rect x="3.325" y="186.217" fill="#FFFFFF" width="53.208" height="44.045"/>
		</g>
		<g>
			<rect x="3.325" y="186.217" fill="none" stroke="#000000" stroke-miterlimit="10" width="53.208" height="44.045"/>
		</g>
	</g>
</g>
<g id="s_52_1_" enable-background="new    ">
	<g id="s_52">
		<g>
			<rect x="3.325" y="159.585" fill="#FFFFFF" width="34.79" height="27.144"/>
		</g>
		<g>
			<rect x="3.325" y="159.585" fill="none" stroke="#000000" stroke-miterlimit="10" width="34.79" height="27.144"/>
		</g>
	</g>
</g>
<g id="escalier_1_" enable-background="new    ">
	<g id="escalier">
		<g>
			<rect x="3.325" y="139.099" fill="#FFFFFF" width="46.045" height="20.486"/>
		</g>
		<g>
			<rect x="3.325" y="139.099" fill="none" stroke="#000000" stroke-miterlimit="10" width="46.045" height="20.486"/>
		</g>
	</g>
</g>
<g id="s_54_1_" enable-background="new    ">
	<g id="s_54">
		<g>
			<rect x="3.325" y="117.588" fill="#FFFFFF" width="46.045" height="21.511"/>
		</g>
		<g>
			<rect x="3.325" y="117.588" fill="none" stroke="#000000" stroke-miterlimit="10" width="46.045" height="21.511"/>
		</g>
	</g>
</g>
<g id="couloir_tech_1_" enable-background="new    ">
	<g id="couloir_tech">
		<g>
			<rect x="3.325" y="64.324" fill="#FFFFFF" width="9.209" height="59.41"/>
		</g>
		<g>
			<rect x="3.325" y="64.324" fill="none" stroke="#000000" stroke-miterlimit="10" width="9.209" height="59.41"/>
		</g>
	</g>
</g>
<g id="s_55_1_" enable-background="new    ">
	<g id="s_55">
		<g>
			<rect x="12.023" y="95.054" fill="#FFFFFF" width="37.347" height="23.047"/>
		</g>
		<g>
			<rect x="12.023" y="95.054" fill="none" stroke="#000000" stroke-miterlimit="10" width="37.347" height="23.047"/>
		</g>
	</g>
</g>
<g id="s_57_1_" enable-background="new    ">
	<g id="s_57">
		<g>
			<rect x="64.207" y="64.324" fill="#FFFFFF" width="42.975" height="26.12"/>
		</g>
		<g>
			<rect x="64.207" y="64.324" fill="none" stroke="#000000" stroke-miterlimit="10" width="42.975" height="26.12"/>
		</g>
	</g>
</g>
<g id="s_56_1_" enable-background="new    ">
	<g id="s_56">
		<g>
			<rect x="12.023" y="64.324" fill="#FFFFFF" width="37.347" height="31.241"/>
		</g>
		<g>
			<rect x="12.023" y="64.324" fill="none" stroke="#000000" stroke-miterlimit="10" width="37.347" height="31.241"/>
		</g>
	</g>
</g>
<g id="vide_sur_lvl2_1_" enable-background="new    ">
	<g id="vide_sur_lvl2">
		<g>
			<polygon fill="#FFFFFF" points="394.84,72.793 358.875,72.663 333.352,98.028 333.223,134.031 358.561,159.581 394.525,159.711 
				420.049,134.346 420.178,98.343 			"/>
		</g>
		<g>
			<polygon fill="none" stroke="#000000" stroke-miterlimit="10" points="394.84,72.793 358.875,72.663 333.352,98.028 
				333.223,134.031 358.561,159.581 394.525,159.711 420.049,134.346 420.178,98.343 			"/>
		</g>
	</g>
</g>
<g id="vitre_exterieure_1_" enable-background="new    ">
	<g id="vitre_exterieure">
		<g>
			<rect x="107.182" y="72.007" fill="#FFFFFF" width="134.553" height="88.09"/>
		</g>
		<g>
			<rect x="107.182" y="72.007" fill="none" stroke="#000000" stroke-miterlimit="10" width="134.553" height="88.09"/>
		</g>
	</g>
</g>
<g id="s_58_1_" enable-background="new    ">
	<g id="s_58">
		<g>
			<rect x="64.207" y="89.932" fill="#FFFFFF" width="42.975" height="26.633"/>
		</g>
		<g>
			<rect x="64.207" y="89.932" fill="none" stroke="#000000" stroke-miterlimit="10" width="42.975" height="26.633"/>
		</g>
	</g>
</g>
<g id="s_59_1_" enable-background="new    ">
	<g id="s_59">
		<g>
			<rect x="64.207" y="116.052" fill="#FFFFFF" width="42.975" height="26.632"/>
		</g>
		<g>
			<rect x="64.207" y="116.052" fill="none" stroke="#000000" stroke-miterlimit="10" width="42.975" height="26.632"/>
		</g>
	</g>
</g>
<g id="placard_elec_4_" enable-background="new    ">
	<g id="placard_elec_1_">
		<g>
			<rect x="63.695" y="127.319" fill="#FFFFFF" width="6.139" height="14.853"/>
		</g>
		<g>
			<rect x="63.695" y="127.319" fill="none" stroke="#000000" stroke-miterlimit="10" width="6.139" height="14.853"/>
		</g>
	</g>
</g>
<g id="s_60_1_" enable-background="new    ">
	<g id="s_60">
		<g>
			<rect x="64.207" y="142.172" fill="#FFFFFF" width="42.975" height="26.119"/>
		</g>
		<g>
			<rect x="64.207" y="142.172" fill="none" stroke="#000000" stroke-miterlimit="10" width="42.975" height="26.119"/>
		</g>
	</g>
</g>
<g id="s_63_1_" enable-background="new    ">
	<g id="s_63">
		<g>
			<rect x="530.795" y="61.252" fill="#FFFFFF" width="62.416" height="110.112"/>
		</g>
		<g>
			<rect x="530.795" y="61.252" fill="none" stroke="#000000" stroke-miterlimit="10" width="62.416" height="110.112"/>
		</g>
	</g>
</g>
<g id="empty_12_" enable-background="new    ">
	<g id="empty_3_">
		<g>
			<rect x="578.375" y="162.658" fill="#FFFFFF" width="15.859" height="9.219"/>
		</g>
	</g>
</g>
<g id="empty_11_" enable-background="new    ">
	<g id="empty_4_">
		<g>
			<rect x="578.375" y="59.715" fill="#FFFFFF" width="15.859" height="10.243"/>
		</g>
	</g>
</g>
<g id="empty_10_" enable-background="new    ">
	<g id="empty_5_">
		<g>
			<rect x="527.214" y="162.146" fill="#FFFFFF" width="4.604" height="8.707"/>
		</g>
	</g>
</g>
<g id="empty_9_" enable-background="new    ">
	<g id="empty_6_">
		<g>
			<rect x="528.748" y="61.764" fill="#FFFFFF" width="3.582" height="8.707"/>
		</g>
	</g>
</g>
<g id="empty_8_" enable-background="new    ">
	<g id="empty_7_">
		<g>
			<rect x="530.283" y="87.371" fill="#FFFFFF" width="1.535" height="57.361"/>
		</g>
	</g>
</g>
<g id="placard_elec_3_" enable-background="new    ">
	<g id="placard_elec_2_">
		<g>
			<rect x="454.565" y="61.252" fill="#FFFFFF" width="5.627" height="28.68"/>
		</g>
		<g>
			<rect x="454.565" y="61.252" fill="none" stroke="#000000" stroke-miterlimit="10" width="5.627" height="28.68"/>
		</g>
	</g>
</g>
<g id="vide_3_" enable-background="new    ">
	<g id="vide">
		<g>
			<path fill="#FFFFFF" d="M532.33,161.634h-1.023v-15.877v-0.513h-4.093h-0.512v25.608v0.512h0.512h5.116h0.512v-0.512v-8.707
				v-0.512H532.33z M532.33,170.853h-5.116v-25.096h3.581v15.877v0.512h0.512h1.023V170.853z"/>
		</g>
		<g>
			<path fill="none" stroke="#000000" stroke-miterlimit="10" d="M532.33,161.634h-1.023v-15.877v-0.513h-4.093h-0.512v25.608v0.512
				h0.512h5.116h0.512v-0.512v-8.707v-0.512H532.33z M532.33,170.853h-5.116v-25.096h3.581v15.877v0.512h0.512h1.023V170.853z"/>
		</g>
	</g>
</g>
<g id="vide_2_" enable-background="new    ">
	<g id="vide_1_">
		<g>
			<path fill="#FFFFFF" d="M532.842,61.252h-6.14h-0.512v25.607h0.512h3.581h0.512v-0.513V70.982h2.047h0.511v-0.512v-8.707v-0.512
				H532.842z M532.842,70.471h-2.559v0.512v15.364h-3.581V61.764h6.14V70.471z"/>
		</g>
		<g>
			<path fill="none" stroke="#000000" stroke-miterlimit="10" d="M532.842,61.252h-6.14h-0.512v25.607h0.512h3.581h0.512v-0.513
				V70.982h2.047h0.511v-0.512v-8.707v-0.512H532.842z M532.842,70.471h-2.559v0.512v15.364h-3.581V61.764h6.14V70.471z"/>
		</g>
	</g>
</g>
<g id="maintenance_1_" enable-background="new    ">
	<g id="maintenance">
		<g>
			<path fill="#FFFFFF" d="M533.097,87.374l-0.307-0.003h0.052v-0.512h-6.14V61.764v-0.512h-15.86h-0.512v0.512v45.069v0.513h0.512
				h5.628v37.387v0.512h0.512h15.298l0.307,0.003L533.097,87.374z M516.47,106.833h-5.628V61.764h15.349v25.607h0.512h5.884
				l-0.507,57.361h-15.098v-37.899H516.47z"/>
		</g>
		<g>
			<path fill="none" stroke="#000000" stroke-miterlimit="10" d="M533.097,87.374l-0.307-0.003h0.052v-0.512h-6.14V61.764v-0.512
				h-15.86h-0.512v0.512v45.069v0.513h0.512h5.628v37.387v0.512h0.512h15.298l0.307,0.003L533.097,87.374z M516.47,106.833h-5.628
				V61.764h15.349v25.607h0.512h5.884l-0.507,57.361h-15.098v-37.899H516.47z"/>
		</g>
	</g>
</g>
<g id="s_65_1_" enable-background="new    ">
	<g id="s_65">
		<g>
			<rect x="460.192" y="61.252" fill="#FFFFFF" width="50.138" height="46.094"/>
		</g>
		<g>
			<rect x="460.192" y="61.252" fill="none" stroke="#000000" stroke-miterlimit="10" width="50.138" height="46.094"/>
		</g>
	</g>
</g>
<g id="ascenseur_1_" enable-background="new    ">
	<g id="ascenseur">
		<g>
			<rect x="455.077" y="89.932" fill="#FFFFFF" width="19.952" height="17.414"/>
		</g>
		<g>
			<rect x="455.077" y="89.932" fill="none" stroke="#000000" stroke-miterlimit="10" width="19.952" height="17.414"/>
		</g>
	</g>
</g>
<g id="s_66_1_" enable-background="new    ">
	<g id="s_66">
		<g>
			<rect x="455.077" y="145.244" fill="#FFFFFF" width="15.859" height="26.12"/>
		</g>
		<g>
			<rect x="455.077" y="145.244" fill="none" stroke="#000000" stroke-miterlimit="10" width="15.859" height="26.12"/>
		</g>
	</g>
</g>
<g id="s_67_1_" enable-background="new    ">
	<g id="s_67">
		<g>
			<rect x="470.425" y="145.244" fill="#FFFFFF" width="40.929" height="26.12"/>
		</g>
		<g>
			<rect x="470.425" y="145.244" fill="none" stroke="#000000" stroke-miterlimit="10" width="40.929" height="26.12"/>
		</g>
	</g>
</g>
<g id="s_68_1_" enable-background="new    ">
	<g id="s_68">
		<g>
			<rect x="510.842" y="145.244" fill="#FFFFFF" width="16.372" height="26.12"/>
		</g>
		<g>
			<rect x="510.842" y="145.244" fill="none" stroke="#000000" stroke-miterlimit="10" width="16.372" height="26.12"/>
		</g>
	</g>
</g>
<g id="s_69_1_" enable-background="new    ">
	<g id="s_69">
		<g>
			<rect x="455.077" y="107.346" fill="#FFFFFF" width="61.393" height="37.898"/>
		</g>
		<g>
			<rect x="455.077" y="107.346" fill="none" stroke="#000000" stroke-miterlimit="10" width="61.393" height="37.898"/>
		</g>
	</g>
</g>
<g id="Forme_2_1_" enable-background="new    ">
	<g id="Forme_2">
		<g>
			<polygon fill="#FFFFFF" points="578.375,162.146 577.863,162.146 577.863,171.364 578.375,171.364 578.375,162.658 
				593.211,162.658 593.211,162.146 			"/>
		</g>
		<g>
			<polygon fill="none" stroke="#000000" stroke-miterlimit="10" points="578.375,162.146 577.863,162.146 577.863,171.364 
				578.375,171.364 578.375,162.658 593.211,162.658 593.211,162.146 			"/>
		</g>
	</g>
</g>
<g id="Forme_4_1_" enable-background="new    ">
	<g id="Forme_4">
		<g>
			<polygon fill="#FFFFFF" points="578.375,69.958 578.375,61.252 577.863,61.252 577.863,69.958 577.863,70.471 578.375,70.471 
				593.211,70.471 593.211,69.958 			"/>
		</g>
		<g>
			<polygon fill="none" stroke="#000000" stroke-miterlimit="10" points="578.375,69.958 578.375,61.252 577.863,61.252 
				577.863,69.958 577.863,70.471 578.375,70.471 593.211,70.471 593.211,69.958 			"/>
		</g>
	</g>
</g>
<g id="Forme_6_1_" enable-background="new    ">
	<g id="Forme_6">
		<g>
			<polygon fill="#FFFFFF" points="604.979,168.291 604.979,186.217 594.746,186.217 594.746,186.729 604.979,186.729 
				605.49,186.729 605.49,186.217 605.49,168.291 			"/>
		</g>
		<g>
			<polygon fill="none" stroke="#000000" stroke-miterlimit="10" points="604.979,168.291 604.979,186.217 594.746,186.217 
				594.746,186.729 604.979,186.729 605.49,186.729 605.49,186.217 605.49,168.291 			"/>
		</g>
	</g>
</g>
<g id="Forme_8_1_" enable-background="new    ">
	<g id="Forme_8">
		<g>
			<polygon fill="#FFFFFF" points="421.822,186.217 421.822,176.486 421.311,176.486 421.311,186.729 421.822,186.729 
				437.17,186.729 437.17,186.217 			"/>
		</g>
		<g>
			<polygon fill="none" stroke="#000000" stroke-miterlimit="10" points="421.822,186.217 421.822,176.486 421.311,176.486 
				421.311,186.729 421.822,186.729 437.17,186.729 437.17,186.217 			"/>
		</g>
	</g>
</g>
<g id="Forme_10_1_" enable-background="new    ">
	<g id="Forme_10">
		<g>
			<polygon fill="#FFFFFF" points="421.311,45.887 421.311,46.399 421.311,56.643 421.822,56.643 421.822,46.399 437.17,46.399 
				437.17,45.887 			"/>
		</g>
		<g>
			<polygon fill="none" stroke="#000000" stroke-miterlimit="10" points="421.311,45.887 421.311,46.399 421.311,56.643 
				421.822,56.643 421.822,46.399 437.17,46.399 437.17,45.887 			"/>
		</g>
	</g>
</g>
</svg>
