<?xml version="1.0" encoding="utf-8"?>
<!-- Generator: Adobe Illustrator 16.0.0, SVG Export Plug-In . SVG Version: 6.00 Build 0)  -->
<!DOCTYPE svg PUBLIC "-//W3C//DTD SVG 1.1//EN" "http://www.w3.org/Graphics/SVG/1.1/DTD/svg11.dtd">
<svg version="1.1" id="Layer_1" xmlns="http://www.w3.org/2000/svg" xmlns:xlink="http://www.w3.org/1999/xlink" x="0px" y="0px"
	 width="1271px" height="455px" viewBox="0 0 1271 455" enable-background="new 0 0 1271 455" xml:space="preserve">
<g id="mur_exterieurs_1_">
	<g id="mur_exterieurs">
		<g>
			<rect fill="none" width="1271" height="455"/>
		</g>
		<g>
			<rect fill="none" stroke="#000000" stroke-miterlimit="10" width="1271" height="455"/>
		</g>
	</g>
</g>
<g id="s_1_1_">
	<g id="s_1">
		<g>
			<rect x="5" y="4" fill="none" width="54" height="87"/>
		</g>
		<g>
			<rect x="5" y="4" fill="none" stroke="#000000" stroke-miterlimit="10" width="54" height="87"/>
		</g>
	</g>
</g>
<g id="s_2_1_">
	<g id="s_2">
		<g>
			<rect x="58" y="4" fill="none" width="52" height="87"/>
		</g>
		<g>
			<rect x="58" y="4" fill="none" stroke="#000000" stroke-miterlimit="10" width="52" height="87"/>
		</g>
	</g>
</g>
<g id="s_3_1_">
	<g id="s_3">
		<g>
			<rect x="109" y="4" fill="none" width="52" height="87"/>
		</g>
		<g>
			<rect x="109" y="4" fill="none" stroke="#000000" stroke-miterlimit="10" width="52" height="87"/>
		</g>
	</g>
</g>
<g id="s_4_1_">
	<g id="s_4">
		<g>
			<rect x="160" y="4" fill="none" width="52" height="87"/>
		</g>
		<g>
			<rect x="160" y="4" fill="none" stroke="#000000" stroke-miterlimit="10" width="52" height="87"/>
		</g>
	</g>
</g>
<g id="s_5_1_">
	<g id="s_5">
		<g>
			<rect x="211" y="4" fill="none" width="51" height="87"/>
		</g>
		<g>
			<rect x="211" y="4" fill="none" stroke="#000000" stroke-miterlimit="10" width="51" height="87"/>
		</g>
	</g>
</g>
<g id="s_6_1_">
	<g id="s_6">
		<g>
			<rect x="261" y="4" fill="none" width="52" height="87"/>
		</g>
		<g>
			<rect x="261" y="4" fill="none" stroke="#000000" stroke-miterlimit="10" width="52" height="87"/>
		</g>
	</g>
</g>
<g id="s_7_1_">
	<g id="s_7">
		<g>
			<rect x="312" y="4" fill="none" width="52" height="87"/>
		</g>
		<g>
			<rect x="312" y="4" fill="none" stroke="#000000" stroke-miterlimit="10" width="52" height="87"/>
		</g>
	</g>
</g>
<g id="s_8_1_">
	<g id="s_8">
		<g>
			<rect x="363" y="4" fill="none" width="52" height="87"/>
		</g>
		<g>
			<rect x="363" y="4" fill="none" stroke="#000000" stroke-miterlimit="10" width="52" height="87"/>
		</g>
	</g>
</g>
<g id="s_9_1_">
	<g id="s_9">
		<g>
			<rect x="415" y="4" fill="none" width="51" height="87"/>
		</g>
		<g>
			<rect x="415" y="4" fill="none" stroke="#000000" stroke-miterlimit="10" width="51" height="87"/>
		</g>
	</g>
</g>
<g id="s_10_1_">
	<g id="s_10">
		<g>
			<rect x="465" y="4" fill="none" width="52" height="87"/>
		</g>
		<g>
			<rect x="465" y="4" fill="none" stroke="#000000" stroke-miterlimit="10" width="52" height="87"/>
		</g>
	</g>
</g>
<g id="s_11_1_">
	<g id="s_11">
		<g>
			<rect x="516" y="4" fill="none" width="52" height="87"/>
		</g>
		<g>
			<rect x="516" y="4" fill="none" stroke="#000000" stroke-miterlimit="10" width="52" height="87"/>
		</g>
	</g>
</g>
<g id="s_12_1_">
	<g id="s_12">
		<g>
			<polygon fill="none" points="618,4 568,4 568,5 618,5 618,69 591,69 590,69 590,70 590,90 568,90 568,5 567,5 567,90 567,91 
				568,91 590,91 591,91 591,90 591,70 618,70 619,70 619,69 619,5 619,4 			"/>
		</g>
		<g>
			<polygon fill="none" stroke="#000000" stroke-miterlimit="10" points="618,4 568,4 568,5 618,5 618,69 591,69 590,69 590,70 
				590,90 568,90 568,5 567,5 567,90 567,91 568,91 590,91 591,91 591,90 591,70 618,70 619,70 619,69 619,5 619,4 			"/>
		</g>
	</g>
</g>
<g id="s_13_1_">
	<g id="s_13">
		<g>
			<path fill="none" d="M684,4h-64h-1v1v64v1h1h41v41h1h22h1V5V4H684z M684,110h-22V69h-1h-41V5h64V110z"/>
		</g>
		<g>
			<path fill="none" stroke="#000000" stroke-miterlimit="10" d="M684,4h-64h-1v1v64v1h1h41v41h1h22h1V5V4H684z M684,110h-22V69h-1
				h-41V5h64V110z"/>
		</g>
	</g>
</g>
<g id="s_14_1_">
	<g id="s_14">
		<g>
			<rect x="591" y="70" fill="none" width="70" height="41"/>
		</g>
		<g>
			<rect x="591" y="70" fill="none" stroke="#000000" stroke-miterlimit="10" width="70" height="41"/>
		</g>
	</g>
</g>
<g id="placard_elec_5_">
	<g id="placard_elec">
		<g>
			<rect x="709" y="100" fill="none" width="29" height="12"/>
		</g>
		<g>
			<rect x="709" y="100" fill="none" stroke="#000000" stroke-miterlimit="10" width="29" height="12"/>
		</g>
	</g>
</g>
<g id="s_15_1_">
	<g id="s_15">
		<g>
			<path fill="none" d="M685,4h-1v1v105v1h1h25v-1v-9h27h1v-1V5V4H685z M737,100h-27h-1v1v9h-24V5h52V100z"/>
		</g>
		<g>
			<path fill="none" stroke="#000000" stroke-miterlimit="10" d="M685,4h-1v1v105v1h1h25v-1v-9h27h1v-1V5V4H685z M737,100h-27h-1v1
				v9h-24V5h52V100z"/>
		</g>
	</g>
</g>
<g id="s_16_1_">
	<g id="s_16">
		<g>
			<rect x="737" y="4" fill="none" width="54" height="108"/>
		</g>
		<g>
			<rect x="737" y="4" fill="none" stroke="#000000" stroke-miterlimit="10" width="54" height="108"/>
		</g>
	</g>
</g>
<g id="s_17_1_">
	<g id="s_17">
		<g>
			<path fill="none" d="M791,4h-1v107v1h1h32h1v-1V91h31v-1V5V4H791z M854,90h-30h-1v1v20h-32V5h63V90z"/>
		</g>
		<g>
			<path fill="none" stroke="#000000" stroke-miterlimit="10" d="M791,4h-1v107v1h1h32h1v-1V91h31v-1V5V4H791z M854,90h-30h-1v1v20
				h-32V5h63V90z"/>
		</g>
	</g>
</g>
<g id="s_18_1_">
	<g id="s_18">
		<g>
			<rect x="855" y="4" fill="none" width="53" height="87"/>
		</g>
		<g>
			<rect x="855" y="4" fill="none" stroke="#000000" stroke-miterlimit="10" width="53" height="87"/>
		</g>
	</g>
</g>
<g id="s_19_1_">
	<g id="s_19">
		<g>
			<rect x="907" y="4" fill="none" width="51" height="87"/>
		</g>
		<g>
			<rect x="907" y="4" fill="none" stroke="#000000" stroke-miterlimit="10" width="51" height="87"/>
		</g>
	</g>
</g>
<g id="s_20_1_">
	<g id="s_20">
		<g>
			<rect x="957" y="4" fill="none" width="52" height="87"/>
		</g>
		<g>
			<rect x="957" y="4" fill="none" stroke="#000000" stroke-miterlimit="10" width="52" height="87"/>
		</g>
	</g>
</g>
<g id="s_21_1_">
	<g id="s_21">
		<g>
			<rect x="1008" y="4" fill="none" width="52" height="87"/>
		</g>
		<g>
			<rect x="1008" y="4" fill="none" stroke="#000000" stroke-miterlimit="10" width="52" height="87"/>
		</g>
	</g>
</g>
<g id="s_22_1_">
	<g id="s_22">
		<g>
			<rect x="1059" y="4" fill="none" width="52" height="87"/>
		</g>
		<g>
			<rect x="1059" y="4" fill="none" stroke="#000000" stroke-miterlimit="10" width="52" height="87"/>
		</g>
	</g>
</g>
<g id="s_23_1_">
	<g id="s_23">
		<g>
			<rect x="1110" y="4" fill="none" width="52" height="87"/>
		</g>
		<g>
			<rect x="1110" y="4" fill="none" stroke="#000000" stroke-miterlimit="10" width="52" height="87"/>
		</g>
	</g>
</g>
<g id="s_24_1_">
	<g id="s_24">
		<g>
			<path fill="none" d="M1265,4h-103h-1v86v1h21h1v-1v-9h82h1v-1V5V4H1265z M1265,80h-82h-1v1v9h-20V5h103V80z"/>
		</g>
		<g>
			<path fill="none" stroke="#000000" stroke-miterlimit="10" d="M1265,4h-103h-1v86v1h21h1v-1v-9h82h1v-1V5V4H1265z M1265,80h-82
				h-1v1v9h-20V5h103V80z"/>
		</g>
	</g>
</g>
<g id="s_25_1_">
	<g id="s_25">
		<g>
			<rect x="1182" y="80" fill="none" width="84" height="58"/>
		</g>
		<g>
			<rect x="1182" y="80" fill="none" stroke="#000000" stroke-miterlimit="10" width="84" height="58"/>
		</g>
	</g>
</g>
<g id="s_26_1_">
	<g id="s_26">
		<g>
			<rect x="1182" y="137" fill="none" width="84" height="57"/>
		</g>
		<g>
			<rect x="1182" y="137" fill="none" stroke="#000000" stroke-miterlimit="10" width="84" height="57"/>
		</g>
	</g>
</g>
<g id="s_27_1_">
	<g id="s_27">
		<g>
			<rect x="1182" y="193" fill="none" width="84" height="69"/>
		</g>
		<g>
			<rect x="1182" y="193" fill="none" stroke="#000000" stroke-miterlimit="10" width="84" height="69"/>
		</g>
	</g>
</g>
<g id="s_28_1_">
	<g id="s_28">
		<g>
			<rect x="1182" y="261" fill="none" width="84" height="68"/>
		</g>
		<g>
			<rect x="1182" y="261" fill="none" stroke="#000000" stroke-miterlimit="10" width="84" height="68"/>
		</g>
	</g>
</g>
<g id="s_29_1_">
	<g id="s_29">
		<g>
			<path fill="none" d="M1265,328h-82h-1v1v35h-20h-1v1v85h1h103h1v-1V329v-1H1265z M1265,449h-103v-84h20h1v-1v-35h82V449z"/>
		</g>
		<g>
			<path fill="none" stroke="#000000" stroke-miterlimit="10" d="M1265,328h-82h-1v1v35h-20h-1v1v85h1h103h1v-1V329v-1H1265z
				 M1265,449h-103v-84h20h1v-1v-35h82V449z"/>
		</g>
	</g>
</g>
<g id="s_30_1_">
	<g id="s_30">
		<g>
			<rect x="1111" y="364" fill="none" width="51" height="86"/>
		</g>
		<g>
			<rect x="1111" y="364" fill="none" stroke="#000000" stroke-miterlimit="10" width="51" height="86"/>
		</g>
	</g>
</g>
<g id="s_31_1_">
	<g id="s_31">
		<g>
			<rect x="1060" y="364" fill="none" width="52" height="86"/>
		</g>
		<g>
			<rect x="1060" y="364" fill="none" stroke="#000000" stroke-miterlimit="10" width="52" height="86"/>
		</g>
	</g>
</g>
<g id="s_32_1_">
	<g id="s_32">
		<g>
			<rect x="1009" y="364" fill="none" width="52" height="86"/>
		</g>
		<g>
			<rect x="1009" y="364" fill="none" stroke="#000000" stroke-miterlimit="10" width="52" height="86"/>
		</g>
	</g>
</g>
<g id="s_33_1_">
	<g id="s_33">
		<g>
			<rect x="958" y="364" fill="none" width="52" height="86"/>
		</g>
		<g>
			<rect x="958" y="364" fill="none" stroke="#000000" stroke-miterlimit="10" width="52" height="86"/>
		</g>
	</g>
</g>
<g id="s_34_1_">
	<g id="s_34">
		<g>
			<rect x="907" y="364" fill="none" width="52" height="86"/>
		</g>
		<g>
			<rect x="907" y="364" fill="none" stroke="#000000" stroke-miterlimit="10" width="52" height="86"/>
		</g>
	</g>
</g>
<g id="s_35_1_">
	<g id="s_35">
		<g>
			<rect x="855" y="364" fill="none" width="53" height="86"/>
		</g>
		<g>
			<rect x="855" y="364" fill="none" stroke="#000000" stroke-miterlimit="10" width="53" height="86"/>
		</g>
	</g>
</g>
<g id="s_36_1_">
	<g id="s_36">
		<g>
			<path fill="none" d="M854,364h-30v-19v-1h-1h-33v1v104v1h1h63h1v-1v-84v-1H854z M854,449h-63V345h32v19v1h31V449z"/>
		</g>
		<g>
			<path fill="none" stroke="#000000" stroke-miterlimit="10" d="M854,364h-30v-19v-1h-1h-33v1v104v1h1h63h1v-1v-84v-1H854z
				 M854,449h-63V345h32v19v1h31V449z"/>
		</g>
	</g>
</g>
<g id="s_37_1_">
	<g id="s_37">
		<g>
			<rect x="737" y="344" fill="none" width="54" height="106"/>
		</g>
		<g>
			<rect x="737" y="344" fill="none" stroke="#000000" stroke-miterlimit="10" width="54" height="106"/>
		</g>
	</g>
</g>
<g id="s_38_1_">
	<g id="s_38">
		<g>
			<rect x="685" y="344" fill="none" width="53" height="106"/>
		</g>
		<g>
			<rect x="685" y="344" fill="none" stroke="#000000" stroke-miterlimit="10" width="53" height="106"/>
		</g>
	</g>
</g>
<g id="s_39_1_">
	<g id="s_39">
		<g>
			<path fill="none" d="M684,344h-22h-1v42h-41h-1v1v62v1h1h64h1V345v-1H684z M684,449h-64v-62h41h1v-1v-41h22V449z"/>
		</g>
		<g>
			<path fill="none" stroke="#000000" stroke-miterlimit="10" d="M684,344h-22h-1v42h-41h-1v1v62v1h1h64h1V345v-1H684z M684,449h-64
				v-62h41h1v-1v-41h22V449z"/>
		</g>
	</g>
</g>
<g id="s_40_1_">
	<g id="s_40">
		<g>
			<rect x="590" y="343" fill="none" width="71" height="43"/>
		</g>
		<g>
			<rect x="590" y="343" fill="none" stroke="#000000" stroke-miterlimit="10" width="71" height="43"/>
		</g>
	</g>
</g>
<g id="s_41_1_">
	<g id="s_41">
		<g>
			<path fill="none" d="M618,386h-28v-21v-1h-1h-21h-1v86h1h50h1v-1v-63H618z M568,449v-84h21v21v1h1h28v62H568z"/>
		</g>
		<g>
			<path fill="none" stroke="#000000" stroke-miterlimit="10" d="M618,386h-28v-21v-1h-1h-21h-1v86h1h50h1v-1v-63H618z M568,449v-84
				h21v21v1h1h28v62H568z"/>
		</g>
	</g>
</g>
<g id="s_42_1_">
	<g id="s_42">
		<g>
			<rect x="517" y="364" fill="none" width="51" height="86"/>
		</g>
		<g>
			<rect x="517" y="364" fill="none" stroke="#000000" stroke-miterlimit="10" width="51" height="86"/>
		</g>
	</g>
</g>
<g id="s_43_1_">
	<g id="s_43">
		<g>
			<rect x="466" y="364" fill="none" width="52" height="86"/>
		</g>
		<g>
			<rect x="466" y="364" fill="none" stroke="#000000" stroke-miterlimit="10" width="52" height="86"/>
		</g>
	</g>
</g>
<g id="s_44_1_">
	<g id="s_44">
		<g>
			<rect x="415" y="364" fill="none" width="52" height="86"/>
		</g>
		<g>
			<rect x="415" y="364" fill="none" stroke="#000000" stroke-miterlimit="10" width="52" height="86"/>
		</g>
	</g>
</g>
<g id="s_45_1_">
	<g id="s_45">
		<g>
			<rect x="365" y="364" fill="none" width="50" height="86"/>
		</g>
		<g>
			<rect x="365" y="364" fill="none" stroke="#000000" stroke-miterlimit="10" width="50" height="86"/>
		</g>
	</g>
</g>
<g id="s_46_1_">
	<g id="s_46">
		<g>
			<rect x="313" y="364" fill="none" width="53" height="86"/>
		</g>
		<g>
			<rect x="313" y="364" fill="none" stroke="#000000" stroke-miterlimit="10" width="53" height="86"/>
		</g>
	</g>
</g>
<g id="s_47_1_">
	<g id="s_47">
		<g>
			<rect x="262" y="364" fill="none" width="52" height="86"/>
		</g>
		<g>
			<rect x="262" y="364" fill="none" stroke="#000000" stroke-miterlimit="10" width="52" height="86"/>
		</g>
	</g>
</g>
<g id="s_48_1_">
	<g id="s_48">
		<g>
			<rect x="211" y="364" fill="none" width="52" height="86"/>
		</g>
		<g>
			<rect x="211" y="364" fill="none" stroke="#000000" stroke-miterlimit="10" width="52" height="86"/>
		</g>
	</g>
</g>
<g id="s_49_1_">
	<g id="s_49">
		<g>
			<rect x="160" y="364" fill="none" width="52" height="86"/>
		</g>
		<g>
			<rect x="160" y="364" fill="none" stroke="#000000" stroke-miterlimit="10" width="52" height="86"/>
		</g>
	</g>
</g>
<g id="s_50_1_">
	<g id="s_50">
		<g>
			<rect x="109" y="364" fill="none" width="52" height="86"/>
		</g>
		<g>
			<rect x="109" y="364" fill="none" stroke="#000000" stroke-miterlimit="10" width="52" height="86"/>
		</g>
	</g>
</g>
<g id="s_51_1_">
	<g id="s_51">
		<g>
			<rect x="6" y="364" fill="none" width="104" height="86"/>
		</g>
		<g>
			<rect x="6" y="364" fill="none" stroke="#000000" stroke-miterlimit="10" width="104" height="86"/>
		</g>
	</g>
</g>
<g id="s_52_1_">
	<g id="s_52">
		<g>
			<rect x="6" y="312" fill="none" width="68" height="53"/>
		</g>
		<g>
			<rect x="6" y="312" fill="none" stroke="#000000" stroke-miterlimit="10" width="68" height="53"/>
		</g>
	</g>
</g>
<g id="escalier_1_">
	<g id="escalier">
		<g>
			<rect x="6" y="272" fill="none" width="90" height="40"/>
		</g>
		<g>
			<rect x="6" y="272" fill="none" stroke="#000000" stroke-miterlimit="10" width="90" height="40"/>
		</g>
	</g>
</g>
<g id="s_54_1_">
	<g id="s_54">
		<g>
			<path fill="none" d="M95,230H24h-1v11H7H6v1v30h1h88h1v-41v-1H95z M95,271H7v-29h16h1v-1v-10h71V271z"/>
		</g>
		<g>
			<path fill="none" stroke="#000000" stroke-miterlimit="10" d="M95,230H24h-1v11H7H6v1v30h1h88h1v-41v-1H95z M95,271H7v-29h16h1
				v-1v-10h71V271z"/>
		</g>
	</g>
</g>
<g id="couloir_tech_1_">
	<g id="couloir_tech">
		<g>
			<rect x="6" y="126" fill="none" width="18" height="116"/>
		</g>
		<g>
			<rect x="6" y="126" fill="none" stroke="#000000" stroke-miterlimit="10" width="18" height="116"/>
		</g>
	</g>
</g>
<g id="s_55_1_">
	<g id="s_55">
		<g>
			<rect x="23" y="186" fill="none" width="73" height="45"/>
		</g>
		<g>
			<rect x="23" y="186" fill="none" stroke="#000000" stroke-miterlimit="10" width="73" height="45"/>
		</g>
	</g>
</g>
<g id="s_57_1_">
	<g id="s_57">
		<g>
			<rect x="125" y="126" fill="none" width="84" height="51"/>
		</g>
		<g>
			<rect x="125" y="126" fill="none" stroke="#000000" stroke-miterlimit="10" width="84" height="51"/>
		</g>
	</g>
</g>
<g id="s_56_1_">
	<g id="s_56">
		<g>
			<rect x="23" y="126" fill="none" width="73" height="61"/>
		</g>
		<g>
			<rect x="23" y="126" fill="none" stroke="#000000" stroke-miterlimit="10" width="73" height="61"/>
		</g>
	</g>
</g>
<g id="vide_sur_lvl2_1_">
	<g id="vide_sur_lvl2">
		<g>
			<polygon fill="none" points="771.259,142.535 700.962,142.281 651.075,191.809 650.821,262.105 700.349,311.992 770.646,312.247 
				820.532,262.719 820.787,192.422 			"/>
		</g>
		<g>
			<polygon fill="none" stroke="#000000" stroke-miterlimit="10" points="771.259,142.535 700.962,142.281 651.075,191.809 
				650.821,262.105 700.349,311.992 770.646,312.247 820.532,262.719 820.787,192.422 			"/>
		</g>
	</g>
</g>
<g id="vitre_exterieure_1_">
	<g id="vitre_exterieure">
		<g>
			<rect x="209" y="141" fill="none" width="263" height="172"/>
		</g>
		<g>
			<rect x="209" y="141" fill="none" stroke="#000000" stroke-miterlimit="10" width="263" height="172"/>
		</g>
	</g>
</g>
<g id="s_58_1_">
	<g id="s_58">
		<g>
			<rect x="125" y="176" fill="none" width="84" height="52"/>
		</g>
		<g>
			<rect x="125" y="176" fill="none" stroke="#000000" stroke-miterlimit="10" width="84" height="52"/>
		</g>
	</g>
</g>
<g id="s_59_1_">
	<g id="s_59">
		<g>
			<path fill="none" d="M208,227h-82h-1v22v1h1h9v28v1h73h1v-1v-50v-1H208z M208,278h-72v-28v-1h-1h-9v-21h82V278z"/>
		</g>
		<g>
			<path fill="none" stroke="#000000" stroke-miterlimit="10" d="M208,227h-82h-1v22v1h1h9v28v1h73h1v-1v-50v-1H208z M208,278h-72
				v-28v-1h-1h-9v-21h82V278z"/>
		</g>
	</g>
</g>
<g id="placard_elec_4_">
	<g id="placard_elec_1_">
		<g>
			<rect x="124" y="249" fill="none" width="12" height="29"/>
		</g>
		<g>
			<rect x="124" y="249" fill="none" stroke="#000000" stroke-miterlimit="10" width="12" height="29"/>
		</g>
	</g>
</g>
<g id="s_60_1_">
	<g id="s_60">
		<g>
			<rect x="125" y="278" fill="none" width="84" height="51"/>
		</g>
		<g>
			<rect x="125" y="278" fill="none" stroke="#000000" stroke-miterlimit="10" width="84" height="51"/>
		</g>
	</g>
</g>
<g id="s_63_1_">
	<g id="s_63">
		<g>
			<path fill="none" d="M1158,137h-28v-16v-1h-88h-1v18h-3h-1v31v1h1h3v114h-3h-1v1v31v1h3v17v1h1h88h1v-1v-16h28h1v-1V137H1158z
				 M1129,317v1v16h-88v-17v-1h-1h-2v-31h3h1v-1V170v-1h-1h-3v-30h3h1v-1v-17h87v17h1h28v179H1129z"/>
		</g>
		<g>
			<path fill="none" stroke="#000000" stroke-miterlimit="10" d="M1158,137h-28v-16v-1h-88h-1v18h-3h-1v31v1h1h3v114h-3h-1v1v31v1h3
				v17v1h1h88h1v-1v-16h28h1v-1V137H1158z M1129,317v1v16h-88v-17v-1h-1h-2v-31h3h1v-1V170v-1h-1h-3v-30h3h1v-1v-17h87v17h1h28v179
				H1129z"/>
		</g>
	</g>
</g>
<g id="ascenseur_1_">
	<g id="ascenseur">
		<g>
			<rect x="889" y="176" fill="none" width="39" height="34"/>
		</g>
		<g>
			<rect x="889" y="176" fill="none" stroke="#000000" stroke-miterlimit="10" width="39" height="34"/>
		</g>
	</g>
</g>
<g id="placard_elec_3_">
	<g id="placard_elec_2_">
		<g>
			<rect x="888" y="120" fill="none" width="11" height="56"/>
		</g>
		<g>
			<rect x="888" y="120" fill="none" stroke="#000000" stroke-miterlimit="10" width="11" height="56"/>
		</g>
	</g>
</g>
<g id="vide_3_">
	<g id="vide">
		<g>
			<path fill="none" d="M1040,316h-2v-31v-1h-8h-1v50v1h1h10h1v-1v-17v-1H1040z M1040,334h-10v-49h7v31v1h1h2V334z"/>
		</g>
		<g>
			<path fill="none" stroke="#000000" stroke-miterlimit="10" d="M1040,316h-2v-31v-1h-8h-1v50v1h1h10h1v-1v-17v-1H1040z M1040,334
				h-10v-49h7v31v1h1h2V334z"/>
		</g>
	</g>
</g>
<g id="vide_2_">
	<g id="vide_1_">
		<g>
			<path fill="none" d="M1041,120h-12h-1v50h1h7h1v-1v-30h4h1v-1v-17v-1H1041z M1041,138h-5v1v30h-7v-48h12V138z"/>
		</g>
		<g>
			<path fill="none" stroke="#000000" stroke-miterlimit="10" d="M1041,120h-12h-1v50h1h7h1v-1v-30h4h1v-1v-17v-1H1041z M1041,138
				h-5v1v30h-7v-48h12V138z"/>
		</g>
	</g>
</g>
<g id="s_64_1_">
	<g id="s_64">
		<g>
			<path fill="none" d="M1041.5,171.005L1041,171v-1h-12v-49v-1h-31h-1v1v88v1h1h11v73v1h1h30l0,0l0.5,0.004L1041.5,171.005z
				 M1009,209h-11v-88h30v50h1h11.5l-0.991,112H1010v-74H1009z"/>
		</g>
		<g>
			<path fill="none" stroke="#000000" stroke-miterlimit="10" d="M1041.5,171.005L1041,171v-1h-12v-49v-1h-31h-1v1v88v1h1h11v73v1h1
				h30l0,0l0.5,0.004L1041.5,171.005z M1009,209h-11v-88h30v50h1h11.5l-0.991,112H1010v-74H1009z"/>
		</g>
	</g>
</g>
<g id="s_65_1_">
	<g id="s_65">
		<g>
			<path fill="none" d="M996,120h-96h-1v55v1h1h28v33v1h1h67h1v-1v-88v-1H996z M996,209h-67v-33v-1h-1h-28v-54h96V209z"/>
		</g>
		<g>
			<path fill="none" stroke="#000000" stroke-miterlimit="10" d="M996,120h-96h-1v55v1h1h28v33v1h1h67h1v-1v-88v-1H996z M996,209
				h-67v-33v-1h-1h-28v-54h96V209z"/>
		</g>
	</g>
</g>
<g id="s_66_1_">
	<g id="s_66">
		<g>
			<rect x="889" y="284" fill="none" width="31" height="51"/>
		</g>
		<g>
			<rect x="889" y="284" fill="none" stroke="#000000" stroke-miterlimit="10" width="31" height="51"/>
		</g>
	</g>
</g>
<g id="s_67_1_">
	<g id="s_67">
		<g>
			<rect x="919" y="284" fill="none" width="80" height="51"/>
		</g>
		<g>
			<rect x="919" y="284" fill="none" stroke="#000000" stroke-miterlimit="10" width="80" height="51"/>
		</g>
	</g>
</g>
<g id="s_68_1_">
	<g id="s_68">
		<g>
			<rect x="998" y="284" fill="none" width="32" height="51"/>
		</g>
		<g>
			<rect x="998" y="284" fill="none" stroke="#000000" stroke-miterlimit="10" width="32" height="51"/>
		</g>
	</g>
</g>
<g id="s_69_1_">
	<g id="s_69">
		<g>
			<rect x="889" y="210" fill="none" width="120" height="74"/>
		</g>
		<g>
			<rect x="889" y="210" fill="none" stroke="#000000" stroke-miterlimit="10" width="120" height="74"/>
		</g>
	</g>
</g>
</svg>
