<?xml version="1.0" encoding="utf-8"?>
<!-- Generator: Adobe Illustrator 16.0.0, SVG Export Plug-In . SVG Version: 6.00 Build 0)  -->
<!DOCTYPE svg PUBLIC "-//W3C//DTD SVG 1.1//EN" "http://www.w3.org/Graphics/SVG/1.1/DTD/svg11.dtd">
<svg version="1.1" xmlns="http://www.w3.org/2000/svg" xmlns:xlink="http://www.w3.org/1999/xlink" x="0px" y="0px" width="600px"
	 height="215px" viewBox="0 0 600 215" enable-background="new 0 0 600 215" xml:space="preserve">
<g id="mur_exterieurs_1_" enable-background="new    ">
	<g id="mur_exterieurs">
		<g>
			<rect fill="#FFFFFF" width="600" height="215"/>
		</g>
		<g>
			<rect fill="none" stroke="#000000" stroke-miterlimit="10" width="600" height="215"/>
		</g>
	</g>
</g>
<g id="s_1_1_" enable-background="new    ">
	<g id="s_1">
		<g>
			<rect x="2.36" y="1.89" fill="#FFFFFF" width="25.492" height="41.11"/>
		</g>
		<g>
			<rect x="2.36" y="1.89" fill="none" stroke="#000000" stroke-miterlimit="10" width="25.492" height="41.11"/>
		</g>
	</g>
</g>
<g id="s_2_1_" enable-background="new    ">
	<g id="s_2">
		<g>
			<rect x="27.38" y="1.89" fill="#FFFFFF" width="24.548" height="41.11"/>
		</g>
		<g>
			<rect x="27.38" y="1.89" fill="none" stroke="#000000" stroke-miterlimit="10" width="24.548" height="41.11"/>
		</g>
	</g>
</g>
<g id="s_3_1_" enable-background="new    ">
	<g id="s_3">
		<g>
			<rect x="51.456" y="1.89" fill="#FFFFFF" width="24.547" height="41.11"/>
		</g>
		<g>
			<rect x="51.456" y="1.89" fill="none" stroke="#000000" stroke-miterlimit="10" width="24.547" height="41.11"/>
		</g>
	</g>
</g>
<g id="s_4_1_" enable-background="new    ">
	<g id="s_4">
		<g>
			<rect x="75.531" y="1.89" fill="#FFFFFF" width="24.547" height="41.11"/>
		</g>
		<g>
			<rect x="75.531" y="1.89" fill="none" stroke="#000000" stroke-miterlimit="10" width="24.547" height="41.11"/>
		</g>
	</g>
</g>
<g id="s_5_1_" enable-background="new    ">
	<g id="s_5">
		<g>
			<rect x="99.606" y="1.89" fill="#FFFFFF" width="24.076" height="41.11"/>
		</g>
		<g>
			<rect x="99.606" y="1.89" fill="none" stroke="#000000" stroke-miterlimit="10" width="24.076" height="41.11"/>
		</g>
	</g>
</g>
<g id="s_6_1_" enable-background="new    ">
	<g id="s_6">
		<g>
			<rect x="123.21" y="1.89" fill="#FFFFFF" width="24.548" height="41.11"/>
		</g>
		<g>
			<rect x="123.21" y="1.89" fill="none" stroke="#000000" stroke-miterlimit="10" width="24.548" height="41.11"/>
		</g>
	</g>
</g>
<g id="s_7_1_" enable-background="new    ">
	<g id="s_7">
		<g>
			<rect x="147.286" y="1.89" fill="#FFFFFF" width="24.547" height="41.11"/>
		</g>
		<g>
			<rect x="147.286" y="1.89" fill="none" stroke="#000000" stroke-miterlimit="10" width="24.547" height="41.11"/>
		</g>
	</g>
</g>
<g id="s_8_1_" enable-background="new    ">
	<g id="s_8">
		<g>
			<rect x="171.361" y="1.89" fill="#FFFFFF" width="24.547" height="41.11"/>
		</g>
		<g>
			<rect x="171.361" y="1.89" fill="none" stroke="#000000" stroke-miterlimit="10" width="24.547" height="41.11"/>
		</g>
	</g>
</g>
<g id="s_9_1_" enable-background="new    ">
	<g id="s_9">
		<g>
			<rect x="195.909" y="1.89" fill="#FFFFFF" width="24.076" height="41.11"/>
		</g>
		<g>
			<rect x="195.909" y="1.89" fill="none" stroke="#000000" stroke-miterlimit="10" width="24.076" height="41.11"/>
		</g>
	</g>
</g>
<g id="s_10_1_" enable-background="new    ">
	<g id="s_10">
		<g>
			<rect x="219.512" y="1.89" fill="#FFFFFF" width="24.547" height="41.11"/>
		</g>
		<g>
			<rect x="219.512" y="1.89" fill="none" stroke="#000000" stroke-miterlimit="10" width="24.547" height="41.11"/>
		</g>
	</g>
</g>
<g id="s_11_1_" enable-background="new    ">
	<g id="s_11">
		<g>
			<rect x="243.588" y="1.89" fill="#FFFFFF" width="24.547" height="41.11"/>
		</g>
		<g>
			<rect x="243.588" y="1.89" fill="none" stroke="#000000" stroke-miterlimit="10" width="24.547" height="41.11"/>
		</g>
	</g>
</g>
<g id="s_12_1_" enable-background="new    ">
	<g id="s_12">
		<g>
			<polygon fill="#FFFFFF" points="291.739,1.89 268.135,1.89 268.135,2.362 291.739,2.362 291.739,32.604 278.993,32.604 
				278.521,32.604 278.521,33.077 278.521,42.527 268.135,42.527 268.135,2.362 267.663,2.362 267.663,42.527 267.663,43 
				268.135,43 278.521,43 278.993,43 278.993,42.527 278.993,33.077 291.739,33.077 292.211,33.077 292.211,32.604 292.211,2.362 
				292.211,1.89 			"/>
		</g>
		<g>
			<polygon fill="none" stroke="#000000" stroke-miterlimit="10" points="291.739,1.89 268.135,1.89 268.135,2.362 291.739,2.362 
				291.739,32.604 278.993,32.604 278.521,32.604 278.521,33.077 278.521,42.527 268.135,42.527 268.135,2.362 267.663,2.362 
				267.663,42.527 267.663,43 268.135,43 278.521,43 278.993,43 278.993,42.527 278.993,33.077 291.739,33.077 292.211,33.077 
				292.211,32.604 292.211,2.362 292.211,1.89 			"/>
		</g>
	</g>
</g>
<g id="s_13_1_" enable-background="new    ">
	<g id="s_13">
		<g>
			<path fill="#FFFFFF" d="M322.896,1.89h-30.212h-0.472v0.473v30.242v0.473h0.472h19.355V52.45h0.472h10.386h0.472V2.362V1.89
				H322.896z M322.896,51.978H312.51V32.604h-0.472h-19.355V2.362h30.212V51.978z"/>
		</g>
		<g>
			<path fill="none" stroke="#000000" stroke-miterlimit="10" d="M322.896,1.89h-30.212h-0.472v0.473v30.242v0.473h0.472h19.355
				V52.45h0.472h10.386h0.472V2.362V1.89H322.896z M322.896,51.978H312.51V32.604h-0.472h-19.355V2.362h30.212V51.978z"/>
		</g>
	</g>
</g>
<g id="s_14_1_" enable-background="new    ">
	<g id="s_14">
		<g>
			<rect x="278.993" y="33.077" fill="#FFFFFF" width="33.045" height="19.373"/>
		</g>
		<g>
			<rect x="278.993" y="33.077" fill="none" stroke="#000000" stroke-miterlimit="10" width="33.045" height="19.373"/>
		</g>
	</g>
</g>
<g id="placard_elec_5_" enable-background="new    ">
	<g id="placard_elec">
		<g>
			<rect x="334.697" y="47.253" fill="#FFFFFF" width="13.689" height="5.67"/>
		</g>
		<g>
			<rect x="334.697" y="47.253" fill="none" stroke="#000000" stroke-miterlimit="10" width="13.689" height="5.67"/>
		</g>
	</g>
</g>
<g id="s_15_1_" enable-background="new    ">
	<g id="s_15">
		<g>
			<path fill="#FFFFFF" d="M323.367,1.89h-0.472v0.473v49.615v0.473h0.472h11.802v-0.473v-4.252h12.746h0.472v-0.473V2.362V1.89
				H323.367z M347.915,47.253h-12.746h-0.472v0.473v4.252h-11.33V2.362h24.548V47.253z"/>
		</g>
		<g>
			<path fill="none" stroke="#000000" stroke-miterlimit="10" d="M323.367,1.89h-0.472v0.473v49.615v0.473h0.472h11.802v-0.473
				v-4.252h12.746h0.472v-0.473V2.362V1.89H323.367z M347.915,47.253h-12.746h-0.472v0.473v4.252h-11.33V2.362h24.548V47.253z"/>
		</g>
	</g>
</g>
<g id="s_16_1_" enable-background="new    ">
	<g id="s_16">
		<g>
			<rect x="347.915" y="1.89" fill="#FFFFFF" width="25.491" height="51.033"/>
		</g>
		<g>
			<rect x="347.915" y="1.89" fill="none" stroke="#000000" stroke-miterlimit="10" width="25.491" height="51.033"/>
		</g>
	</g>
</g>
<g id="s_17_1_" enable-background="new    ">
	<g id="s_17">
		<g>
			<path fill="#FFFFFF" d="M373.406,1.89h-0.472V52.45v0.473h0.472h15.106h0.473V52.45V43h14.634v-0.473V2.362V1.89H373.406z
				 M403.147,42.527h-14.162h-0.473V43v9.45h-15.106V2.362h29.741V42.527z"/>
		</g>
		<g>
			<path fill="none" stroke="#000000" stroke-miterlimit="10" d="M373.406,1.89h-0.472V52.45v0.473h0.472h15.106h0.473V52.45V43
				h14.634v-0.473V2.362V1.89H373.406z M403.147,42.527h-14.162h-0.473V43v9.45h-15.106V2.362h29.741V42.527z"/>
		</g>
	</g>
</g>
<g id="s_18_1_" enable-background="new    ">
	<g id="s_18">
		<g>
			<rect x="403.619" y="1.89" fill="#FFFFFF" width="25.02" height="41.11"/>
		</g>
		<g>
			<rect x="403.619" y="1.89" fill="none" stroke="#000000" stroke-miterlimit="10" width="25.02" height="41.11"/>
		</g>
	</g>
</g>
<g id="s_19_1_" enable-background="new    ">
	<g id="s_19">
		<g>
			<rect x="428.167" y="1.89" fill="#FFFFFF" width="24.075" height="41.11"/>
		</g>
		<g>
			<rect x="428.167" y="1.89" fill="none" stroke="#000000" stroke-miterlimit="10" width="24.075" height="41.11"/>
		</g>
	</g>
</g>
<g id="s_20_1_" enable-background="new    ">
	<g id="s_20">
		<g>
			<rect x="451.771" y="1.89" fill="#FFFFFF" width="24.547" height="41.11"/>
		</g>
		<g>
			<rect x="451.771" y="1.89" fill="none" stroke="#000000" stroke-miterlimit="10" width="24.547" height="41.11"/>
		</g>
	</g>
</g>
<g id="s_21_1_" enable-background="new    ">
	<g id="s_21">
		<g>
			<rect x="475.846" y="1.89" fill="#FFFFFF" width="24.548" height="41.11"/>
		</g>
		<g>
			<rect x="475.846" y="1.89" fill="none" stroke="#000000" stroke-miterlimit="10" width="24.548" height="41.11"/>
		</g>
	</g>
</g>
<g id="s_22_1_" enable-background="new    ">
	<g id="s_22">
		<g>
			<rect x="499.921" y="1.89" fill="#FFFFFF" width="24.548" height="41.11"/>
		</g>
		<g>
			<rect x="499.921" y="1.89" fill="none" stroke="#000000" stroke-miterlimit="10" width="24.548" height="41.11"/>
		</g>
	</g>
</g>
<g id="s_23_1_" enable-background="new    ">
	<g id="s_23">
		<g>
			<rect x="523.997" y="1.89" fill="#FFFFFF" width="24.547" height="41.11"/>
		</g>
		<g>
			<rect x="523.997" y="1.89" fill="none" stroke="#000000" stroke-miterlimit="10" width="24.547" height="41.11"/>
		</g>
	</g>
</g>
<g id="s_24_1_" enable-background="new    ">
	<g id="s_24">
		<g>
			<path fill="#FFFFFF" d="M597.168,1.89h-48.624h-0.472v40.638V43h9.913h0.473v-0.473v-4.253h38.71h0.472v-0.473V2.362V1.89
				H597.168z M597.168,37.802h-38.71h-0.473v0.473v4.253h-9.441V2.362h48.624V37.802z"/>
		</g>
		<g>
			<path fill="none" stroke="#000000" stroke-miterlimit="10" d="M597.168,1.89h-48.624h-0.472v40.638V43h9.913h0.473v-0.473v-4.253
				h38.71h0.472v-0.473V2.362V1.89H597.168z M597.168,37.802h-38.71h-0.473v0.473v4.253h-9.441V2.362h48.624V37.802z"/>
		</g>
	</g>
</g>
<g id="s_25_1_" enable-background="new    ">
	<g id="s_25">
		<g>
			<rect x="557.985" y="37.802" fill="#FFFFFF" width="39.654" height="27.407"/>
		</g>
		<g>
			<rect x="557.985" y="37.802" fill="none" stroke="#000000" stroke-miterlimit="10" width="39.654" height="27.407"/>
		</g>
	</g>
</g>
<g id="s_26_1_" enable-background="new    ">
	<g id="s_26">
		<g>
			<rect x="557.985" y="64.736" fill="#FFFFFF" width="39.654" height="26.934"/>
		</g>
		<g>
			<rect x="557.985" y="64.736" fill="none" stroke="#000000" stroke-miterlimit="10" width="39.654" height="26.934"/>
		</g>
	</g>
</g>
<g id="s_27_1_" enable-background="new    ">
	<g id="s_27">
		<g>
			<rect x="557.985" y="91.198" fill="#FFFFFF" width="39.654" height="32.604"/>
		</g>
		<g>
			<rect x="557.985" y="91.198" fill="none" stroke="#000000" stroke-miterlimit="10" width="39.654" height="32.604"/>
		</g>
	</g>
</g>
<g id="s_28_1_" enable-background="new    ">
	<g id="s_28">
		<g>
			<rect x="557.985" y="123.33" fill="#FFFFFF" width="39.654" height="32.132"/>
		</g>
		<g>
			<rect x="557.985" y="123.33" fill="none" stroke="#000000" stroke-miterlimit="10" width="39.654" height="32.132"/>
		</g>
	</g>
</g>
<g id="s_29_1_" enable-background="new    ">
	<g id="s_29">
		<g>
			<path fill="#FFFFFF" d="M597.168,154.989h-38.71h-0.473v0.473V172h-9.441h-0.472v0.473v40.165h0.472h48.624h0.472v-0.473v-56.703
				v-0.473H597.168z M597.168,212.165h-48.624v-39.692h9.441h0.473V172v-16.538h38.71V212.165z"/>
		</g>
		<g>
			<path fill="none" stroke="#000000" stroke-miterlimit="10" d="M597.168,154.989h-38.71h-0.473v0.473V172h-9.441h-0.472v0.473
				v40.165h0.472h48.624h0.472v-0.473v-56.703v-0.473H597.168z M597.168,212.165h-48.624v-39.692h9.441h0.473V172v-16.538h38.71
				V212.165z"/>
		</g>
	</g>
</g>
<g id="s_30_1_" enable-background="new    ">
	<g id="s_30">
		<g>
			<rect x="524.469" y="172" fill="#FFFFFF" width="24.075" height="40.638"/>
		</g>
		<g>
			<rect x="524.469" y="172" fill="none" stroke="#000000" stroke-miterlimit="10" width="24.075" height="40.638"/>
		</g>
	</g>
</g>
<g id="s_31_1_" enable-background="new    ">
	<g id="s_31">
		<g>
			<rect x="500.394" y="172" fill="#FFFFFF" width="24.548" height="40.638"/>
		</g>
		<g>
			<rect x="500.394" y="172" fill="none" stroke="#000000" stroke-miterlimit="10" width="24.548" height="40.638"/>
		</g>
	</g>
</g>
<g id="s_32_1_" enable-background="new    ">
	<g id="s_32">
		<g>
			<rect x="476.317" y="172" fill="#FFFFFF" width="24.548" height="40.638"/>
		</g>
		<g>
			<rect x="476.317" y="172" fill="none" stroke="#000000" stroke-miterlimit="10" width="24.548" height="40.638"/>
		</g>
	</g>
</g>
<g id="s_33_1_" enable-background="new    ">
	<g id="s_33">
		<g>
			<rect x="452.242" y="172" fill="#FFFFFF" width="24.548" height="40.638"/>
		</g>
		<g>
			<rect x="452.242" y="172" fill="none" stroke="#000000" stroke-miterlimit="10" width="24.548" height="40.638"/>
		</g>
	</g>
</g>
<g id="s_34_1_" enable-background="new    ">
	<g id="s_34">
		<g>
			<rect x="428.167" y="172" fill="#FFFFFF" width="24.548" height="40.638"/>
		</g>
		<g>
			<rect x="428.167" y="172" fill="none" stroke="#000000" stroke-miterlimit="10" width="24.548" height="40.638"/>
		</g>
	</g>
</g>
<g id="s_35_1_" enable-background="new    ">
	<g id="s_35">
		<g>
			<rect x="403.619" y="172" fill="#FFFFFF" width="25.02" height="40.638"/>
		</g>
		<g>
			<rect x="403.619" y="172" fill="none" stroke="#000000" stroke-miterlimit="10" width="25.02" height="40.638"/>
		</g>
	</g>
</g>
<g id="s_36_1_" enable-background="new    ">
	<g id="s_36">
		<g>
			<path fill="#FFFFFF" d="M403.147,172h-14.162v-8.979v-0.472h-0.473h-15.578v0.472v49.144v0.473h0.472h29.741h0.472v-0.473
				v-39.692V172H403.147z M403.147,212.165h-29.741v-49.144h15.106V172v0.473h14.635V212.165z"/>
		</g>
		<g>
			<path fill="none" stroke="#000000" stroke-miterlimit="10" d="M403.147,172h-14.162v-8.979v-0.472h-0.473h-15.578v0.472v49.144
				v0.473h0.472h29.741h0.472v-0.473v-39.692V172H403.147z M403.147,212.165h-29.741v-49.144h15.106V172v0.473h14.635V212.165z"/>
		</g>
	</g>
</g>
<g id="s_37_1_" enable-background="new    ">
	<g id="s_37">
		<g>
			<rect x="347.915" y="162.55" fill="#FFFFFF" width="25.491" height="50.088"/>
		</g>
		<g>
			<rect x="347.915" y="162.55" fill="none" stroke="#000000" stroke-miterlimit="10" width="25.491" height="50.088"/>
		</g>
	</g>
</g>
<g id="s_38_1_" enable-background="new    ">
	<g id="s_38">
		<g>
			<rect x="323.367" y="162.55" fill="#FFFFFF" width="25.02" height="50.088"/>
		</g>
		<g>
			<rect x="323.367" y="162.55" fill="none" stroke="#000000" stroke-miterlimit="10" width="25.02" height="50.088"/>
		</g>
	</g>
</g>
<g id="s_39_1_" enable-background="new    ">
	<g id="s_39">
		<g>
			<path fill="#FFFFFF" d="M322.896,162.55H312.51h-0.472v19.846h-19.355h-0.472v0.473v29.297v0.473h0.472h30.212h0.472v-49.616
				v-0.472H322.896z M322.896,212.165h-30.212v-29.297h19.355h0.472v-0.473v-19.374h10.386V212.165z"/>
		</g>
		<g>
			<path fill="none" stroke="#000000" stroke-miterlimit="10" d="M322.896,162.55H312.51h-0.472v19.846h-19.355h-0.472v0.473v29.297
				v0.473h0.472h30.212h0.472v-49.616v-0.472H322.896z M322.896,212.165h-30.212v-29.297h19.355h0.472v-0.473v-19.374h10.386
				V212.165z"/>
		</g>
	</g>
</g>
<g id="s_40_1_" enable-background="new    ">
	<g id="s_40">
		<g>
			<rect x="278.521" y="162.077" fill="#FFFFFF" width="33.517" height="20.318"/>
		</g>
		<g>
			<rect x="278.521" y="162.077" fill="none" stroke="#000000" stroke-miterlimit="10" width="33.517" height="20.318"/>
		</g>
	</g>
</g>
<g id="s_41_1_" enable-background="new    ">
	<g id="s_41">
		<g>
			<path fill="#FFFFFF" d="M291.739,182.396h-13.218v-9.923V172h-0.472h-9.914h-0.472v40.638h0.472h23.604h0.472v-0.473v-29.77
				H291.739z M268.135,212.165v-39.692h9.914v9.923v0.473h0.472h13.218v29.297H268.135z"/>
		</g>
		<g>
			<path fill="none" stroke="#000000" stroke-miterlimit="10" d="M291.739,182.396h-13.218v-9.923V172h-0.472h-9.914h-0.472v40.638
				h0.472h23.604h0.472v-0.473v-29.77H291.739z M268.135,212.165v-39.692h9.914v9.923v0.473h0.472h13.218v29.297H268.135z"/>
		</g>
	</g>
</g>
<g id="s_42_1_" enable-background="new    ">
	<g id="s_42">
		<g>
			<rect x="244.06" y="172" fill="#FFFFFF" width="24.076" height="40.638"/>
		</g>
		<g>
			<rect x="244.06" y="172" fill="none" stroke="#000000" stroke-miterlimit="10" width="24.076" height="40.638"/>
		</g>
	</g>
</g>
<g id="s_43_1_" enable-background="new    ">
	<g id="s_43">
		<g>
			<rect x="219.984" y="172" fill="#FFFFFF" width="24.547" height="40.638"/>
		</g>
		<g>
			<rect x="219.984" y="172" fill="none" stroke="#000000" stroke-miterlimit="10" width="24.547" height="40.638"/>
		</g>
	</g>
</g>
<g id="s_44_1_" enable-background="new    ">
	<g id="s_44">
		<g>
			<rect x="195.909" y="172" fill="#FFFFFF" width="24.547" height="40.638"/>
		</g>
		<g>
			<rect x="195.909" y="172" fill="none" stroke="#000000" stroke-miterlimit="10" width="24.547" height="40.638"/>
		</g>
	</g>
</g>
<g id="s_45_1_" enable-background="new    ">
	<g id="s_45">
		<g>
			<rect x="172.305" y="172" fill="#FFFFFF" width="23.604" height="40.638"/>
		</g>
		<g>
			<rect x="172.305" y="172" fill="none" stroke="#000000" stroke-miterlimit="10" width="23.604" height="40.638"/>
		</g>
	</g>
</g>
<g id="s_46_1_" enable-background="new    ">
	<g id="s_46">
		<g>
			<rect x="147.758" y="172" fill="#FFFFFF" width="25.02" height="40.638"/>
		</g>
		<g>
			<rect x="147.758" y="172" fill="none" stroke="#000000" stroke-miterlimit="10" width="25.02" height="40.638"/>
		</g>
	</g>
</g>
<g id="s_47_1_" enable-background="new    ">
	<g id="s_47">
		<g>
			<rect x="123.682" y="172" fill="#FFFFFF" width="24.547" height="40.638"/>
		</g>
		<g>
			<rect x="123.682" y="172" fill="none" stroke="#000000" stroke-miterlimit="10" width="24.547" height="40.638"/>
		</g>
	</g>
</g>
<g id="s_48_1_" enable-background="new    ">
	<g id="s_48">
		<g>
			<rect x="99.606" y="172" fill="#FFFFFF" width="24.548" height="40.638"/>
		</g>
		<g>
			<rect x="99.606" y="172" fill="none" stroke="#000000" stroke-miterlimit="10" width="24.548" height="40.638"/>
		</g>
	</g>
</g>
<g id="s_49_1_" enable-background="new    ">
	<g id="s_49">
		<g>
			<rect x="75.531" y="172" fill="#FFFFFF" width="24.547" height="40.638"/>
		</g>
		<g>
			<rect x="75.531" y="172" fill="none" stroke="#000000" stroke-miterlimit="10" width="24.547" height="40.638"/>
		</g>
	</g>
</g>
<g id="s_50_1_" enable-background="new    ">
	<g id="s_50">
		<g>
			<rect x="51.456" y="172" fill="#FFFFFF" width="24.547" height="40.638"/>
		</g>
		<g>
			<rect x="51.456" y="172" fill="none" stroke="#000000" stroke-miterlimit="10" width="24.547" height="40.638"/>
		</g>
	</g>
</g>
<g id="s_51_1_" enable-background="new    ">
	<g id="s_51">
		<g>
			<rect x="2.833" y="172" fill="#FFFFFF" width="49.095" height="40.638"/>
		</g>
		<g>
			<rect x="2.833" y="172" fill="none" stroke="#000000" stroke-miterlimit="10" width="49.095" height="40.638"/>
		</g>
	</g>
</g>
<g id="s_52_1_" enable-background="new    ">
	<g id="s_52">
		<g>
			<rect x="2.833" y="147.429" fill="#FFFFFF" width="32.101" height="25.044"/>
		</g>
		<g>
			<rect x="2.833" y="147.429" fill="none" stroke="#000000" stroke-miterlimit="10" width="32.101" height="25.044"/>
		</g>
	</g>
</g>
<g id="escalier_1_" enable-background="new    ">
	<g id="escalier">
		<g>
			<rect x="2.833" y="128.527" fill="#FFFFFF" width="42.486" height="18.901"/>
		</g>
		<g>
			<rect x="2.833" y="128.527" fill="none" stroke="#000000" stroke-miterlimit="10" width="42.486" height="18.901"/>
		</g>
	</g>
</g>
<g id="s_54_1_" enable-background="new    ">
	<g id="s_54">
		<g>
			<path fill="#FFFFFF" d="M44.847,108.682H11.33h-0.472v5.197H3.305H2.833v0.473v14.176h0.472h41.542h0.472v-19.373v-0.473H44.847z
				 M44.847,128.055H3.305v-13.703h7.553h0.472v-0.473v-4.725h33.517V128.055z"/>
		</g>
		<g>
			<path fill="none" stroke="#000000" stroke-miterlimit="10" d="M44.847,108.682H11.33h-0.472v5.197H3.305H2.833v0.473v14.176
				h0.472h41.542h0.472v-19.373v-0.473H44.847z M44.847,128.055H3.305v-13.703h7.553h0.472v-0.473v-4.725h33.517V128.055z"/>
		</g>
	</g>
</g>
<g id="couloir_tech_1_" enable-background="new    ">
	<g id="couloir_tech">
		<g>
			<rect x="2.833" y="59.538" fill="#FFFFFF" width="8.497" height="54.813"/>
		</g>
		<g>
			<rect x="2.833" y="59.538" fill="none" stroke="#000000" stroke-miterlimit="10" width="8.497" height="54.813"/>
		</g>
	</g>
</g>
<g id="s_55_1_" enable-background="new    ">
	<g id="s_55">
		<g>
			<rect x="10.857" y="87.89" fill="#FFFFFF" width="34.461" height="21.265"/>
		</g>
		<g>
			<rect x="10.857" y="87.89" fill="none" stroke="#000000" stroke-miterlimit="10" width="34.461" height="21.265"/>
		</g>
	</g>
</g>
<g id="s_57_1_" enable-background="new    ">
	<g id="s_57">
		<g>
			<rect x="59.009" y="59.538" fill="#FFFFFF" width="39.654" height="24.1"/>
		</g>
		<g>
			<rect x="59.009" y="59.538" fill="none" stroke="#000000" stroke-miterlimit="10" width="39.654" height="24.1"/>
		</g>
	</g>
</g>
<g id="s_56_1_" enable-background="new    ">
	<g id="s_56">
		<g>
			<rect x="10.857" y="59.538" fill="#FFFFFF" width="34.461" height="28.824"/>
		</g>
		<g>
			<rect x="10.857" y="59.538" fill="none" stroke="#000000" stroke-miterlimit="10" width="34.461" height="28.824"/>
		</g>
	</g>
</g>
<g id="vide_sur_lvl2_1_" enable-background="new    ">
	<g id="vide_sur_lvl2">
		<g>
			<polygon fill="#FFFFFF" points="364.088,67.352 330.902,67.231 307.353,90.635 307.232,123.852 330.613,147.425 363.798,147.545 
				387.349,124.142 387.468,90.925 			"/>
		</g>
		<g>
			<polygon fill="none" stroke="#000000" stroke-miterlimit="10" points="364.088,67.352 330.902,67.231 307.353,90.635 
				307.232,123.852 330.613,147.425 363.798,147.545 387.349,124.142 387.468,90.925 			"/>
		</g>
	</g>
</g>
<g id="vitre_exterieure_1_" enable-background="new    ">
	<g id="vitre_exterieure">
		<g>
			<rect x="98.663" y="66.626" fill="#FFFFFF" width="124.154" height="81.275"/>
		</g>
		<g>
			<rect x="98.663" y="66.626" fill="none" stroke="#000000" stroke-miterlimit="10" width="124.154" height="81.275"/>
		</g>
	</g>
</g>
<g id="s_58_1_" enable-background="new    ">
	<g id="s_58">
		<g>
			<rect x="59.009" y="83.165" fill="#FFFFFF" width="39.654" height="24.571"/>
		</g>
		<g>
			<rect x="59.009" y="83.165" fill="none" stroke="#000000" stroke-miterlimit="10" width="39.654" height="24.571"/>
		</g>
	</g>
</g>
<g id="s_59_1_" enable-background="new    ">
	<g id="s_59">
		<g>
			<path fill="#FFFFFF" d="M98.19,107.264H59.48h-0.472v10.396v0.473h0.472h4.249v13.23v0.473H98.19h0.472v-0.473v-23.626v-0.473
				H98.19z M98.19,131.362H64.201v-13.23v-0.473h-0.472H59.48v-9.923h38.71V131.362z"/>
		</g>
		<g>
			<path fill="none" stroke="#000000" stroke-miterlimit="10" d="M98.19,107.264H59.48h-0.472v10.396v0.473h0.472h4.249v13.23v0.473
				H98.19h0.472v-0.473v-23.626v-0.473H98.19z M98.19,131.362H64.201v-13.23v-0.473h-0.472H59.48v-9.923h38.71V131.362z"/>
		</g>
	</g>
</g>
<g id="placard_elec_4_" enable-background="new    ">
	<g id="placard_elec_1_">
		<g>
			<rect x="58.537" y="117.659" fill="#FFFFFF" width="5.665" height="13.703"/>
		</g>
		<g>
			<rect x="58.537" y="117.659" fill="none" stroke="#000000" stroke-miterlimit="10" width="5.665" height="13.703"/>
		</g>
	</g>
</g>
<g id="s_60_1_" enable-background="new    ">
	<g id="s_60">
		<g>
			<rect x="59.009" y="131.362" fill="#FFFFFF" width="39.654" height="24.1"/>
		</g>
		<g>
			<rect x="59.009" y="131.362" fill="none" stroke="#000000" stroke-miterlimit="10" width="39.654" height="24.1"/>
		</g>
	</g>
</g>
<g id="s_63_1_" enable-background="new    ">
	<g id="s_63">
		<g>
			<path fill="#FFFFFF" d="M546.656,64.736h-13.218v-7.561v-0.473h-41.542h-0.473v8.506h-1.416h-0.472v14.648v0.473h0.472h1.416
				v53.867h-1.416h-0.472v0.473v14.648v0.473h1.416v8.033v0.473h0.472h41.542h0.473v-0.473v-7.561h13.218h0.472v-0.473V64.736
				H546.656z M532.966,149.791v0.473v7.561h-41.542v-8.033v-0.473h-0.472h-0.944V134.67h1.416h0.473v-0.473V80.33v-0.473h-0.473
				h-1.416V65.682h1.416h0.473v-0.473v-8.033h41.069v8.033h0.473h13.218v84.582H532.966z"/>
		</g>
		<g>
			<path fill="none" stroke="#000000" stroke-miterlimit="10" d="M546.656,64.736h-13.218v-7.561v-0.473h-41.542h-0.473v8.506
				h-1.416h-0.472v14.648v0.473h0.472h1.416v53.867h-1.416h-0.472v0.473v14.648v0.473h1.416v8.033v0.473h0.472h41.542h0.473v-0.473
				v-7.561h13.218h0.472v-0.473V64.736H546.656z M532.966,149.791v0.473v7.561h-41.542v-8.033v-0.473h-0.472h-0.944V134.67h1.416
				h0.473v-0.473V80.33v-0.473h-0.473h-1.416V65.682h1.416h0.473v-0.473v-8.033h41.069v8.033h0.473h13.218v84.582H532.966z"/>
		</g>
	</g>
</g>
<g id="ascenseur_1_" enable-background="new    ">
	<g id="ascenseur">
		<g>
			<rect x="419.67" y="83.165" fill="#FFFFFF" width="18.41" height="16.065"/>
		</g>
		<g>
			<rect x="419.67" y="83.165" fill="none" stroke="#000000" stroke-miterlimit="10" width="18.41" height="16.065"/>
		</g>
	</g>
</g>
<g id="placard_elec_3_" enable-background="new    ">
	<g id="placard_elec_2_">
		<g>
			<rect x="419.197" y="56.703" fill="#FFFFFF" width="5.193" height="26.462"/>
		</g>
		<g>
			<rect x="419.197" y="56.703" fill="none" stroke="#000000" stroke-miterlimit="10" width="5.193" height="26.462"/>
		</g>
	</g>
</g>
<g id="vide_3_" enable-background="new    ">
	<g id="vide">
		<g>
			<path fill="#FFFFFF" d="M490.952,149.318h-0.944V134.67v-0.473h-3.776h-0.473v23.627v0.473h0.473h4.721h0.472v-0.473v-8.033
				v-0.473H490.952z M490.952,157.824h-4.721V134.67h3.305v14.648v0.473h0.472h0.944V157.824z"/>
		</g>
		<g>
			<path fill="none" stroke="#000000" stroke-miterlimit="10" d="M490.952,149.318h-0.944V134.67v-0.473h-3.776h-0.473v23.627v0.473
				h0.473h4.721h0.472v-0.473v-8.033v-0.473H490.952z M490.952,157.824h-4.721V134.67h3.305v14.648v0.473h0.472h0.944V157.824z"/>
		</g>
	</g>
</g>
<g id="vide_2_" enable-background="new    ">
	<g id="vide_1_">
		<g>
			<path fill="#FFFFFF" d="M491.424,56.703h-5.665h-0.472V80.33h0.472h3.305h0.473v-0.473V65.682h1.888h0.473v-0.473v-8.033v-0.473
				H491.424z M491.424,65.209h-2.36v0.473v14.176h-3.305V57.176h5.665V65.209z"/>
		</g>
		<g>
			<path fill="none" stroke="#000000" stroke-miterlimit="10" d="M491.424,56.703h-5.665h-0.472V80.33h0.472h3.305h0.473v-0.473
				V65.682h1.888h0.473v-0.473v-8.033v-0.473H491.424z M491.424,65.209h-2.36v0.473v14.176h-3.305V57.176h5.665V65.209z"/>
		</g>
	</g>
</g>
<g id="s_64_1_" enable-background="new    ">
	<g id="s_64">
		<g>
			<path fill="#FFFFFF" d="M491.66,80.805l-0.283-0.003h0.047V80.33h-5.665V57.176v-0.473h-14.634h-0.472v0.473v41.582v0.473h0.472
				h5.192v34.495v0.472h0.473h14.114l0.283,0.003L491.66,80.805z M476.317,98.758h-5.192V57.176h14.162v23.626h0.472h5.429
				l-0.468,52.924h-13.93V98.758H476.317z"/>
		</g>
		<g>
			<path fill="none" stroke="#000000" stroke-miterlimit="10" d="M491.66,80.805l-0.283-0.003h0.047V80.33h-5.665V57.176v-0.473
				h-14.634h-0.472v0.473v41.582v0.473h0.472h5.192v34.495v0.472h0.473h14.114l0.283,0.003L491.66,80.805z M476.317,98.758h-5.192
				V57.176h14.162v23.626h0.472h5.429l-0.468,52.924h-13.93V98.758H476.317z"/>
		</g>
	</g>
</g>
<g id="s_65_1_" enable-background="new    ">
	<g id="s_65">
		<g>
			<path fill="#FFFFFF" d="M470.181,56.703h-45.318h-0.472v25.989v0.473h0.472h13.218v15.593v0.473h0.473h31.628h0.473v-0.473
				V57.176v-0.473H470.181z M470.181,98.758h-31.628V83.165v-0.473h-0.473h-13.218V57.176h45.318V98.758z"/>
		</g>
		<g>
			<path fill="none" stroke="#000000" stroke-miterlimit="10" d="M470.181,56.703h-45.318h-0.472v25.989v0.473h0.472h13.218v15.593
				v0.473h0.473h31.628h0.473v-0.473V57.176v-0.473H470.181z M470.181,98.758h-31.628V83.165v-0.473h-0.473h-13.218V57.176h45.318
				V98.758z"/>
		</g>
	</g>
</g>
<g id="s_66_1_" enable-background="new    ">
	<g id="s_66">
		<g>
			<rect x="419.67" y="134.197" fill="#FFFFFF" width="14.634" height="24.1"/>
		</g>
		<g>
			<rect x="419.67" y="134.197" fill="none" stroke="#000000" stroke-miterlimit="10" width="14.634" height="24.1"/>
		</g>
	</g>
</g>
<g id="s_67_1_" enable-background="new    ">
	<g id="s_67">
		<g>
			<rect x="433.832" y="134.197" fill="#FFFFFF" width="37.765" height="24.1"/>
		</g>
		<g>
			<rect x="433.832" y="134.197" fill="none" stroke="#000000" stroke-miterlimit="10" width="37.765" height="24.1"/>
		</g>
	</g>
</g>
<g id="s_68_1_" enable-background="new    ">
	<g id="s_68">
		<g>
			<rect x="471.125" y="134.197" fill="#FFFFFF" width="15.106" height="24.1"/>
		</g>
		<g>
			<rect x="471.125" y="134.197" fill="none" stroke="#000000" stroke-miterlimit="10" width="15.106" height="24.1"/>
		</g>
	</g>
</g>
<g id="s_69_1_" enable-background="new    ">
	<g id="s_69">
		<g>
			<rect x="419.67" y="99.23" fill="#FFFFFF" width="56.647" height="34.967"/>
		</g>
		<g>
			<rect x="419.67" y="99.23" fill="none" stroke="#000000" stroke-miterlimit="10" width="56.647" height="34.967"/>
		</g>
	</g>
</g>
</svg>
